<?xml version="1.0" encoding="UTF-8" standalone="no"?>
<svg
   xmlns:dc="http://purl.org/dc/elements/1.1/"
   xmlns:cc="http://creativecommons.org/ns#"
   xmlns:rdf="http://www.w3.org/1999/02/22-rdf-syntax-ns#"
   xmlns:svg="http://www.w3.org/2000/svg"
   xmlns="http://www.w3.org/2000/svg"
   xmlns:sodipodi="http://sodipodi.sourceforge.net/DTD/sodipodi-0.dtd"
   xmlns:inkscape="http://www.inkscape.org/namespaces/inkscape"
   inkscape:version="1.0 (4035a4fb49, 2020-05-01)"
   sodipodi:docname="a_2.svg"
   id="svg10"
   viewBox="0 0 39 44"
   style="shape-rendering:geometricPrecision; text-rendering:geometricPrecision; image-rendering:optimizeQuality; fill-rule:evenodd; clip-rule:evenodd"
   version="1.0"
   height="9.3025mm"
   width="8.1229mm"
   xml:space="preserve"><metadata
   id="metadata14"><rdf:RDF><cc:Work
       rdf:about=""><dc:format>image/svg+xml</dc:format><dc:type
         rdf:resource="http://purl.org/dc/dcmitype/StillImage" /></cc:Work></rdf:RDF></metadata><sodipodi:namedview
   inkscape:current-layer="svg10"
   inkscape:window-maximized="1"
   inkscape:window-y="-8"
   inkscape:window-x="-8"
   inkscape:cy="17.579527"
   inkscape:cx="15.350362"
   inkscape:zoom="15.301891"
   showgrid="false"
   id="namedview12"
   inkscape:window-height="705"
   inkscape:window-width="1366"
   inkscape:pageshadow="2"
   inkscape:pageopacity="0"
   guidetolerance="10"
   gridtolerance="10"
   objecttolerance="10"
   borderopacity="1"
   bordercolor="#666666"
   pagecolor="#ffffff" />
 <defs
   id="defs4">
  <style
   id="style2"
   type="text/css">
   <![CDATA[
    .str0 {stroke:black;stroke-width:0.954558}
    .fil0 {fill:none}
   ]]>
  </style>
 </defs>
 
<path
   id="path16"
   d="m 20.940935,2.4072776 c -3.137259,-0.09421 -6.35553,0.017446 -9.136742,1.6297821 C 10.702129,4.6759533 9.4789139,5.7849276 8.5912731,6.6854557 7.8635271,7.4237668 8.5725815,6.7769127 8.1896581,7.3984856 7.9091961,7.853739 7.6035285,8.2931983 7.286024,8.7226835 7.17243,8.8763409 7.0026781,8.9801463 6.8844089,9.1301291 6.7505373,9.3338519 6.6166656,9.5375747 6.482794,9.7412974 c 0,0.067908 0.029935,0.1429848 0,0.2037228 -0.407063,0.8259458 -1.0740391,1.5210198 -1.5060563,2.3428118 -0.486623,0.925664 -0.8425972,1.973961 -1.2048451,2.953981 -0.066937,0.203722 -0.1338715,0.407444 -0.2008077,0.611167 0,0.135808 0.035225,0.276417 0,0.407448 -0.067064,0.249471 -0.2311892,0.464393 -0.3012112,0.713028 -0.092402,0.328101 0.00596,0.694893 -0.1004026,1.018613 -0.070996,0.216081 -0.2178304,0.39969 -0.3012112,0.611169 -0.3571815,0.905918 -0.4456854,2.837151 -0.6024225,3.870733 -0.123063,0.811519 -0.3474564,1.6205 -0.4016151,2.444673 -0.020036,0.304907 0.035193,0.613261 0,0.916752 -0.032247,0.278074 -0.1719162,0.53644 -0.2008075,0.814893 -0.1020838,0.983878 0,2.064449 0,3.055841 0,0.715915 -0.065269,1.874224 0.1004026,2.546535 0.3119932,1.266089 1.097639,2.533882 1.7068638,3.667009 0.2537055,0.471878 0.854655,1.012306 1.1044415,1.324197 0.7514416,0.938279 0.00468,0.335207 1.0040375,1.222338 0.4191983,0.372123 0.9379977,0.609758 1.4056525,0.916753 2.4225433,1.590284 5.1952933,2.390483 8.0323003,2.750257 0.716827,0.09091 4.036788,0.553673 4.718977,0 0.155796,-0.126439 0.924164,-0.80099 1.004038,-0.916753 0.171662,-0.248794 0.251631,-0.552067 0.401614,-0.814891 0.218637,-0.383128 0.498655,-0.729219 0.702826,-1.120476 0.745581,-1.428762 0.867629,-3.247975 1.204846,-4.787485 0.0391,-0.17849 0.133863,-0.339539 0.200807,-0.509307 0.16734,-0.746982 0.364528,-1.487724 0.502019,-2.24095 0.03047,-0.166929 -0.01752,-0.340471 0,-0.509306 0.506425,-3.596443 0.0035,0.454691 0.200809,-2.546535 0.03842,-0.584836 0.237409,-1.149097 0.301211,-1.731644 0.104689,-0.955884 0,-1.993058 0,-2.953981 0,-1.460012 0,-2.920027 0,-4.380038 0,-1.358151 0,-2.716304 0,-4.074456 0,-1.110029 0.06773,-2.271711 -0.200809,-3.361426 C 23.669974,10.62979 23.359845,9.0500911 22.748202,7.6022083 22.558647,7.1534921 22.252896,6.163448 22.045377,5.7687033 21.94453,5.5768707 21.7396,5.4538541 21.643761,5.2593964 21.534798,5.0383053 21.528505,4.7778154 21.442955,4.5463667 21.168033,3.8025972 20.780588,3.2206517 20.940935,2.4072776 Z"
   style="fill:none;stroke:#000000;stroke-width:1.54748px;stroke-linecap:butt;stroke-linejoin:miter;stroke-opacity:1" /><path
   id="path18"
   d="m 20.940935,2.4072777 c -0.06694,0.2037228 -0.174553,0.3980838 -0.200807,0.6111682 -0.03161,0.2565875 0.231189,0.4643945 0.301211,0.7130297 0.151577,0.5381992 0.222647,1.1737152 0.301211,1.7316434 0.247502,1.7576654 0.455288,3.5388694 0.702827,5.296793 0.29592,2.101516 0.126488,-0.131575 0.401614,2.24095 0.01955,0.168606 0,0.339538 0,0.509307 0.10041,0.441399 0.233315,0.876464 0.301211,1.324199 0.372769,2.45817 -0.09112,0.454558 0.200808,1.935365 0.09398,0.476703 0.228349,0.945568 0.301211,1.426059 0.16902,1.114575 0.01948,1.071434 0.200808,2.037229 0.08354,0.444999 0.227805,0.877361 0.301211,1.324197 0.129916,0.790789 0.04416,1.646052 0.10041,2.444673 0.05309,0.753963 0.385967,1.495291 0.502017,2.240951 0.19932,1.28068 0.172543,2.592539 0.401617,3.870733 0.06826,0.380887 0.230887,0.739973 0.30121,1.120476 0.258423,1.398267 -0.127856,2.888775 0.100409,4.278177 0.445594,2.712383 -0.04906,-1.240353 0.401614,1.731643 0.02035,0.134233 -0.04233,0.2786 0,0.407447 0.09464,0.288108 0.300933,0.528891 0.401617,0.814891 0.498903,1.417213 -0.08801,0.05666 0.100409,0.916753 0.178816,0.816354 0.836095,2.410229 1.506056,2.953979 0.287643,0.233456 0.374904,-0.0067 0.803229,0.101863 0.09183,0.02329 0.10799,0.184887 0.200808,0.203723 0.360999,0.07324 0.736295,0 1.104443,0 1.204844,0 2.409688,0 3.614534,0 0.171845,0 2.832898,0.128513 3.212921,0 0.655494,-0.221671 0.778124,-1.477002 0.502018,-2.037228"
   style="fill:none;stroke:#000000;stroke-width:1.54748px;stroke-linecap:butt;stroke-linejoin:miter;stroke-opacity:1" /></svg>
