<?xml version="1.0" encoding="UTF-8" standalone="no"?>
<svg
   xmlns:dc="http://purl.org/dc/elements/1.1/"
   xmlns:cc="http://creativecommons.org/ns#"
   xmlns:rdf="http://www.w3.org/1999/02/22-rdf-syntax-ns#"
   xmlns:svg="http://www.w3.org/2000/svg"
   xmlns="http://www.w3.org/2000/svg"
   xmlns:sodipodi="http://sodipodi.sourceforge.net/DTD/sodipodi-0.dtd"
   xmlns:inkscape="http://www.inkscape.org/namespaces/inkscape"
   inkscape:version="1.0 (4035a4fb49, 2020-05-01)"
   sodipodi:docname="a_3.svg"
   id="svg10"
   viewBox="0 0 2621 4383"
   style="shape-rendering:geometricPrecision; text-rendering:geometricPrecision; image-rendering:optimizeQuality; fill-rule:evenodd; clip-rule:evenodd"
   version="1.1"
   height="21.2787mm"
   width="12.7242mm"
   xml:space="preserve"><metadata
   id="metadata14"><rdf:RDF><cc:Work
       rdf:about=""><dc:format>image/svg+xml</dc:format><dc:type
         rdf:resource="http://purl.org/dc/dcmitype/StillImage" /></cc:Work></rdf:RDF></metadata><sodipodi:namedview
   inkscape:current-layer="svg10"
   inkscape:window-maximized="1"
   inkscape:window-y="-8"
   inkscape:window-x="-8"
   inkscape:cy="40.211716"
   inkscape:cx="24.045733"
   inkscape:zoom="6.6895926"
   showgrid="false"
   id="namedview12"
   inkscape:window-height="705"
   inkscape:window-width="1366"
   inkscape:pageshadow="2"
   inkscape:pageopacity="0"
   guidetolerance="10"
   gridtolerance="10"
   objecttolerance="10"
   borderopacity="1"
   bordercolor="#666666"
   pagecolor="#ffffff" />
 <defs
   id="defs4">
  <style
   id="style2"
   type="text/css">
   <![CDATA[
    .str0 {stroke:black;stroke-width:41.1973}
    .fil0 {fill:none}
   ]]>
  </style>
 </defs>
 
<path
   id="path16"
   d="m 1873.817,423.59441 c -117.8133,-10.61065 -238.0393,-8.14704 -358.4693,-8.14704 -26.6141,0 -122.1999,-3.7052 -154.7936,8.14704 -7.0014,2.54598 -163.7681,80.44768 -187.3817,97.76436 -18.5822,13.62696 -30.7355,34.68042 -48.8822,48.88216 -52.2101,40.86009 -113.5325,69.8512 -162.94061,114.05843 -119.67256,107.07546 -276.17495,258.12848 -358.46934,399.20454 -93.72617,160.6734 -187.4651,407.8102 -219.96982,586.5862 -7.35141,40.4327 -9.53798,81.6689 -16.29406,122.2055 -104.45834,626.75 -2.05924,-78.5446 -48.88218,358.4693 -3.2346,30.1894 -13.5452,59.3798 -16.29406,89.6173 -12.79585,140.7543 -8.14703,282.5567 -8.14703,423.6456 0,149.3622 0,298.7244 0,448.0867 0,43.7337 -12.50144,287.8151 0,350.3223 35.30166,176.5083 11.0542,-4.6652 48.88218,146.6465 2.6346,10.5384 -3.4351,22.2829 0,32.5882 5.00749,15.0223 17.35947,26.5719 24.44109,40.7351 29.53506,59.0701 -23.5894,-18.8771 24.44109,65.1763 36.98819,64.7293 113.65683,116.8384 179.23465,146.6465 4.94482,2.2476 11.25121,-2.017 16.29407,0 24.4411,9.7765 128.31576,67.213 146.64656,73.3233 12.88159,4.2941 27.2616,-1.6841 40.73517,0 73.55117,9.1939 146.68269,21.484 219.96981,32.5881 72.01498,10.9114 253.68028,20.1805 325.88118,8.147 130.8813,-21.8135 232.7134,-204.4087 276.9991,-309.5871 59.4008,-141.077 113.1488,-292.5812 154.7936,-439.9397 21.3157,-75.425 34.5071,-153.0432 57.0292,-228.1168 18.2674,-60.8913 50.6891,-117.335 65.1762,-179.2347 15.5825,-66.5798 14.2977,-136.0533 24.4411,-203.6757 14.3633,-95.7556 41.1267,-189.7312 57.0292,-285.1461 30.9613,-185.7678 44.4119,-375.2659 65.1763,-562.1452 17.2079,-154.8716 16.1229,-54.1202 24.441,-195.5287 5.7246,-97.317 1.2088,-196.1594 8.1471,-293.2931 0.7978,-11.1685 7.3493,-21.4195 8.147,-32.5881 6.2938,-88.113 0,-180.3869 0,-268.852 0,-32.58813 7.0694,-65.95224 0,-97.76434 -14.4873,-65.19306 -15.6146,-28.51119 -24.441,-81.47034 -1.3582,-8.14704 2.0366,-35.30378 0,-40.73512 -5.5601,-14.82676 -19.0297,-25.85359 -24.4412,-40.73517 -5.6451,-15.52431 -3.4002,-33.06006 -8.147,-48.88221 -3.4896,-11.63265 -12.9576,-20.91051 -16.2941,-32.58808 -2.2383,-7.8336 1.3391,-16.40492 0,-24.4411 -4.2544,-25.52626 -66.3076,-192.30377 -81.4702,-203.67578 -9.716,-7.28692 -21.7255,-10.8627 -32.5882,-16.29405 z"
   style="fill:none;stroke:#000000;stroke-width:54.5003px;stroke-linecap:butt;stroke-linejoin:miter;stroke-opacity:1" /><path
   id="path18"
   d="m 1873.817,423.59441 c 13.5784,27.15677 35.7437,51.52122 40.7352,81.4703 3.6815,22.08935 -12.6125,43.08692 -16.2941,65.17622 -9.5628,57.37663 -21.6394,120.39937 -24.4411,179.2347 -6.7509,141.76873 10.9165,84.2776 -8.147,244.41091 -8.1278,68.27336 -26.2198,135.21586 -32.5881,203.67576 -10.8161,116.2721 3.2422,233.5932 0,350.3223 -0.8328,29.9841 -5.4315,59.7449 -8.1471,89.6174 -2.7157,97.7643 -5.9741,195.5151 -8.147,293.293 -4.7012,211.5584 0,423.8347 0,635.4684 0,135.0552 -3.9704,272.3571 0,407.3516 6.1242,208.222 4.663,25.6734 24.4411,203.6757 2.0993,18.8935 -3.1251,38.2781 0,57.0292 5.0903,30.5422 19.1358,59.1118 24.4411,89.6174 5.603,32.2174 3.5223,65.3919 8.147,97.7643 9.1386,63.9701 45.2228,135.6684 65.1762,195.5288 7.0817,21.2448 7.9772,44.3838 16.2941,65.1762 2.8526,7.1317 13.2683,9.234 16.2941,16.2941 8.7612,20.4428 4.4319,45.4056 16.294,65.1762 3.9519,6.5865 13.2684,9.234 16.2941,16.294 26.363,61.5138 -16.2569,22.8564 32.5882,81.4704 3.8875,4.6647 12.5006,3.4052 16.294,8.147 19.3154,24.1442 23.28,52.8416 48.8822,73.3233 36.2528,29.0023 108.406,49.7137 154.7936,65.1762 17.1087,5.703 39.9204,-5.7029 57.0291,0 11.5217,3.8407 21.0665,12.4535 32.5882,16.2941 21.9596,7.3198 50.8293,-5.6235 73.3232,0 17.8895,4.4723 45.5925,13.0043 57.0293,24.4411 1.4175,1.4175 16.7177,24.4411 24.4411,24.4411 2.7157,0 -0.8589,-5.5707 0,-8.1471 1.92,-5.7608 5.4315,-10.8626 8.147,-16.294 18.8905,-37.7811 24.2854,-40.6573 40.7351,-48.8822"
   style="fill:none;stroke:#000000;stroke-width:54.5003px;stroke-linecap:butt;stroke-linejoin:miter;stroke-opacity:1" /></svg>
