<?xml version="1.0" encoding="UTF-8" standalone="no"?>
<svg
   xmlns:dc="http://purl.org/dc/elements/1.1/"
   xmlns:cc="http://creativecommons.org/ns#"
   xmlns:rdf="http://www.w3.org/1999/02/22-rdf-syntax-ns#"
   xmlns:svg="http://www.w3.org/2000/svg"
   xmlns="http://www.w3.org/2000/svg"
   xmlns:sodipodi="http://sodipodi.sourceforge.net/DTD/sodipodi-0.dtd"
   xmlns:inkscape="http://www.inkscape.org/namespaces/inkscape"
   inkscape:version="1.0 (4035a4fb49, 2020-05-01)"
   sodipodi:docname="b_2.svg"
   id="svg10"
   viewBox="0 0 11 23"
   style="shape-rendering:geometricPrecision; text-rendering:geometricPrecision; image-rendering:optimizeQuality; fill-rule:evenodd; clip-rule:evenodd"
   version="1.0"
   height="8.1539mm"
   width="3.9786mm"
   xml:space="preserve"><metadata
   id="metadata14"><rdf:RDF><cc:Work
       rdf:about=""><dc:format>image/svg+xml</dc:format><dc:type
         rdf:resource="http://purl.org/dc/dcmitype/StillImage" /></cc:Work></rdf:RDF></metadata><sodipodi:namedview
   inkscape:current-layer="svg10"
   inkscape:window-maximized="1"
   inkscape:window-y="-8"
   inkscape:window-x="-8"
   inkscape:cy="15.408945"
   inkscape:cx="7.5186142"
   inkscape:zoom="17.457392"
   showgrid="false"
   id="namedview12"
   inkscape:window-height="705"
   inkscape:window-width="1366"
   inkscape:pageshadow="2"
   inkscape:pageopacity="0"
   guidetolerance="10"
   gridtolerance="10"
   objecttolerance="10"
   borderopacity="1"
   bordercolor="#666666"
   pagecolor="#ffffff" />
 <defs
   id="defs4">
  <style
   id="style2"
   type="text/css">
   <![CDATA[
    .str0 {stroke:black;stroke-width:0.564614}
    .fil0 {fill:none}
   ]]>
  </style>
 </defs>
 
<path
   id="path16"
   d="m 1.1748806,1.2825279 c -0.047341,0.1893655 -0.068481,0.2489993 -0.085502,0.4702602 -0.052971,0.6886315 0,1.4048114 0,2.0947956 0,1.4107807 0,2.8215613 0,4.2323418 0,4.1753415 0,8.3506825 0,12.5260225"
   style="fill:none;stroke:#000000;stroke-width:0.74632px;stroke-linecap:butt;stroke-linejoin:miter;stroke-opacity:1" /><path
   id="path18"
   d="m 1.1748806,12.055762 c 0.8548816,-0.893866 1.9345633,-0.818002 3.078067,-0.94052 1.1197135,-0.11997 1.5073644,-0.132668 2.6505572,0.213754 0.1421777,0.04309 0.8712104,0.279392 1.068774,0.384759 0.1964089,0.104751 0.3349333,0.293951 0.5130104,0.427509 0.2907803,0.218085 0.8720753,0.569939 1.0687743,0.89777 0.04637,0.07728 0.0452,0.175893 0.0855,0.256505 0.03187,0.06373 0.100849,0.105233 0.128253,0.171004 0.0452,0.108471 0.04834,0.230527 0.0855,0.342008 0.131689,0.395066 0.2776925,0.778978 0.3420075,1.197026 0.02817,0.183099 0,0.370508 0,0.555761 0,0.26057 0.05835,0.940351 0,1.154276 -0.06898,0.252929 -0.2042885,0.467599 -0.3420075,0.684014 -0.111679,0.175495 -0.17993,0.388705 -0.299256,0.555762 -0.453566,0.634992 -1.058934,0.977368 -1.7100376,1.36803 -0.1942453,0.116547 -0.1498348,0.133095 -0.4275098,0.256506 -0.2103779,0.0935 -0.4228573,0.183703 -0.6412633,0.256505 -0.027039,0.009 -0.060758,-0.01414 -0.085502,0 -0.3396815,0.194104 -0.079924,0.150292 -0.4275092,0.299257 -0.026196,0.01123 -0.058467,-0.009 -0.085502,0 -0.4049114,0.134971 0.1062483,0.05239 -0.4275093,0.171004 -0.041733,0.0093 -0.087147,-0.01175 -0.1282528,0 -0.061277,0.01751 -0.1105448,0.06535 -0.1710037,0.0855 -0.2540604,0.08469 -0.5504615,0.161393 -0.8122677,0.213754 -0.093738,0.01875 -0.1637657,0.105068 -0.2565055,0.128253 -0.147807,0.03695 -0.8134979,0.0137 -0.9405205,-0.04275 -0.1942703,-0.08634 -0.5527928,-0.47026 -0.7695167,-0.47026"
   style="fill:none;stroke:#000000;stroke-width:0.74632px;stroke-linecap:butt;stroke-linejoin:miter;stroke-opacity:1" /></svg>
