<?xml version="1.0" encoding="UTF-8" standalone="no"?>
<svg
   xmlns:dc="http://purl.org/dc/elements/1.1/"
   xmlns:cc="http://creativecommons.org/ns#"
   xmlns:rdf="http://www.w3.org/1999/02/22-rdf-syntax-ns#"
   xmlns:svg="http://www.w3.org/2000/svg"
   xmlns="http://www.w3.org/2000/svg"
   xmlns:sodipodi="http://sodipodi.sourceforge.net/DTD/sodipodi-0.dtd"
   xmlns:inkscape="http://www.inkscape.org/namespaces/inkscape"
   inkscape:version="1.0 (4035a4fb49, 2020-05-01)"
   sodipodi:docname="d.svg"
   id="svg10"
   viewBox="0 0 593 766"
   style="shape-rendering:geometricPrecision; text-rendering:geometricPrecision; image-rendering:optimizeQuality; fill-rule:evenodd; clip-rule:evenodd"
   version="1.1"
   height="9.9369mm"
   width="7.7001mm"
   xml:space="preserve"><metadata
   id="metadata14"><rdf:RDF><cc:Work
       rdf:about=""><dc:format>image/svg+xml</dc:format><dc:type
         rdf:resource="http://purl.org/dc/dcmitype/StillImage" /></cc:Work></rdf:RDF></metadata><sodipodi:namedview
   inkscape:current-layer="svg10"
   inkscape:window-maximized="1"
   inkscape:window-y="-8"
   inkscape:window-x="-8"
   inkscape:cy="18.778394"
   inkscape:cx="14.55137"
   inkscape:zoom="14.324974"
   showgrid="false"
   id="namedview12"
   inkscape:window-height="705"
   inkscape:window-width="1366"
   inkscape:pageshadow="2"
   inkscape:pageopacity="0"
   guidetolerance="10"
   gridtolerance="10"
   objecttolerance="10"
   borderopacity="1"
   bordercolor="#666666"
   pagecolor="#ffffff" />
 <defs
   id="defs4">
  <style
   id="style2"
   type="text/css">
   <![CDATA[
    .str0 {stroke:black;stroke-width:15.3965}
    .fil0 {fill:none}
   ]]>
  </style>
 </defs>
 
<path
   id="path16"
   d="m 311.52387,364.4907 c -8.64236,-0.91414 -17.1554,0.85887 -25.62826,1.42383 -12.39066,0.82603 -26.29315,-1.81604 -38.44237,1.42383 -21.86791,5.83144 -44.04479,13.76487 -62.64684,27.05204 -5.59496,3.99641 -13.55999,7.86484 -18.50929,12.81414 -1.21,1.20988 -1.55979,3.14454 -2.84758,4.27137 -7.58733,6.63891 -6.93561,3.19708 -11.39034,8.54275 -9.40429,11.28515 -16.99657,24.94616 -22.78067,38.44237 -5.25908,5.68884 -3.26882,13.46283 -5.69516,19.93309 -0.60084,1.60229 -2.35588,2.63236 -2.84759,4.27138 -0.44903,1.49685 -2.73591,20.61238 -2.84758,21.35687 -0.82054,10.63344 -4.08149,20.83451 -5.69517,31.32343 -2.47776,16.10549 -0.51469,43.66037 2.84759,59.79925 2.50589,12.02831 5.76015,18.15383 11.39033,28.47583 6.59106,12.08362 -0.17153,3.42731 12.81413,24.20447 15.81752,25.30804 41.74913,51.85564 71.18958,61.22305 13.01506,4.14114 42.79994,5.3688 55.52788,5.69515 11.3866,0.29187 22.78068,0 34.17101,0 2.37299,0 4.80906,0.54355 7.11896,0 5.84364,-1.37487 11.82538,-2.80209 17.08551,-5.69515 15.15147,-8.33333 24.69201,-26.13246 31.32341,-41.28997 4.84987,-11.08541 11.27615,-21.47005 15.66171,-32.7472 1.04631,-2.69057 0.69938,-5.74829 1.42383,-8.54275 6.85719,-26.44919 11.79484,-44.31579 14.23791,-71.1896 4.4619,-49.08081 -4.02741,49.92078 8.54275,-39.86618 3.69927,-26.42326 2.8476,-53.16439 2.8476,-79.73232 0,-32.74722 0,-65.49442 0,-98.24164 0,-21.35687 0,-42.71376 0,-64.07063 0,-6.64436 1.74833,-13.52285 0,-19.93308 -2.25122,-8.25446 -6.29155,-15.95001 -8.54275,-24.20447 -0.62432,-2.28937 0.3608,-4.77357 0,-7.11897 -1.93809,-12.59741 -5.93772,-26.35585 -9.96658,-38.44245 -4.3573,-13.07187 -9.43972,-26.36852 -12.81414,-39.86617 -1.09703,-4.38811 -3.67652,-12.32671 -4.27137,-17.0855 -0.23536,-1.88373 0.60025,-3.8942 0,-5.69517 -0.42443,-1.27347 -2.15695,-1.69652 -2.8476,-2.84758 -1.79054,-2.98413 -4.46922,-9.74928 -5.69515,-12.81413 -0.8813,-2.20326 0.68183,-4.84605 0,-7.118956 -0.91483,-3.049428 -3.26461,-5.522432 -4.27139,-8.542752 -1.06123,-3.183695 -0.45947,-6.752163 -1.42378,-9.966542 -2.31745,-7.724814 -4.42544,-9.467195 -5.69516,-17.0855 -1.79605,-10.776235 0,-23.148401 0,-34.171005 0,-0.474589 0,0.9492 0,1.423789 0,9.880152 0.45034,-2.57573 -2.8476,12.814126 -3.78649,17.670355 -6.3132,39.115359 -8.54275,56.951671 -1.29635,10.371209 0.39262,21.030539 -1.42383,31.323419 -0.55334,3.13525 -3.6043,5.42973 -4.27136,8.54275 -0.79544,3.7125 0.50173,7.62686 0,11.39034 -0.45667,3.42481 -2.44389,6.53508 -2.8476,9.96654 -0.55456,4.71346 0,9.49194 0,14.23792 -1.42383,6.64436 -3.31038,13.20618 -4.27137,19.93308 -1.14094,7.98706 0,16.1363 0,24.20447 0,19.45849 0,38.91698 0,58.37545 0,44.13755 0,88.2751 0,132.41265 0,17.39189 -0.66592,35.36742 0,52.6803 0.55436,14.41366 8.09325,27.44217 11.39033,41.28995 2.80803,11.79372 3.86519,23.88119 7.11897,35.5948 -1.24557,7.60628 5.17494,12.19123 7.11896,18.50929 5.56892,18.09901 -0.33123,7.74762 7.11896,25.62826 0.65817,1.57965 2.26279,2.66322 2.84758,4.27136 1.33735,3.67801 1.30594,7.79315 2.84758,11.39035 2.74139,6.39659 11.58645,17.54104 15.66171,22.78066 10.6786,13.72962 48.68446,39.29206 64.07063,46.98513 7.55935,3.77968 17.34845,5.39586 24.20447,9.96654 0.88293,0.58862 0.57475,2.21086 1.42383,2.84759 3.37723,2.53294 9.31795,2.77301 12.81412,4.27137 5.08719,2.18023 9.39972,5.85485 14.23792,8.54275 6.34079,3.52268 13.31361,6.88788 19.93309,8.54275 3.54927,0.88742 4.28219,3.804 7.11896,5.69518 2.67515,1.78341 6.90683,2.74152 9.96654,4.27136"
   style="fill:none;stroke:#000000;stroke-width:20.3958px;stroke-linecap:butt;stroke-linejoin:miter;stroke-opacity:1" /></svg>
