<?xml version="1.0" encoding="UTF-8" standalone="no"?>
<svg
   xmlns:dc="http://purl.org/dc/elements/1.1/"
   xmlns:cc="http://creativecommons.org/ns#"
   xmlns:rdf="http://www.w3.org/1999/02/22-rdf-syntax-ns#"
   xmlns:svg="http://www.w3.org/2000/svg"
   xmlns="http://www.w3.org/2000/svg"
   xmlns:sodipodi="http://sodipodi.sourceforge.net/DTD/sodipodi-0.dtd"
   xmlns:inkscape="http://www.inkscape.org/namespaces/inkscape"
   inkscape:version="1.0 (4035a4fb49, 2020-05-01)"
   sodipodi:docname="d_2.svg"
   id="svg10"
   viewBox="0 0 48 40"
   style="shape-rendering:geometricPrecision; text-rendering:geometricPrecision; image-rendering:optimizeQuality; fill-rule:evenodd; clip-rule:evenodd"
   version="1.0"
   height="5.1496mm"
   width="6.2091mm"
   xml:space="preserve"><metadata
   id="metadata14"><rdf:RDF><cc:Work
       rdf:about=""><dc:format>image/svg+xml</dc:format><dc:type
         rdf:resource="http://purl.org/dc/dcmitype/StillImage" /></cc:Work></rdf:RDF></metadata><sodipodi:namedview
   inkscape:current-layer="svg10"
   inkscape:window-maximized="1"
   inkscape:window-y="-8"
   inkscape:window-x="-8"
   inkscape:cy="3.5311182"
   inkscape:cx="9.9950243"
   inkscape:zoom="13.821057"
   showgrid="false"
   id="namedview12"
   inkscape:window-height="705"
   inkscape:window-width="1366"
   inkscape:pageshadow="2"
   inkscape:pageopacity="0"
   guidetolerance="10"
   gridtolerance="10"
   objecttolerance="10"
   borderopacity="1"
   bordercolor="#666666"
   pagecolor="#ffffff" />
 <defs
   id="defs4">
  <style
   id="style2"
   type="text/css">
   <![CDATA[
    .str0 {stroke:black;stroke-width:1.55538}
    .fil0 {fill:none}
   ]]>
  </style>
 </defs>
 
<path
   id="path16"
   d="m 30.106899,20.257518 c -0.359347,-0.354395 -0.332005,-0.09345 -0.70356,-0.274965 -0.159177,-0.07776 -0.280551,-0.197203 -0.439728,-0.274963 -0.354381,-0.173124 -0.847419,-0.154964 -1.231232,-0.274965 -0.182586,-0.05708 -0.336891,-0.168943 -0.527671,-0.206222 -0.360808,-0.07051 -0.857761,0.03243 -1.231233,0 -0.370985,-0.03222 -0.606545,-0.143546 -0.967397,-0.206224 -0.495704,-0.0861 -1.169949,0 -1.670959,0 -0.497719,0 -1.921925,-0.04527 -2.286576,0.06874 -0.910077,0.28454 -2.144738,1.089095 -2.814247,1.649785 -1.742421,1.459219 -3.494278,3.517423 -4.04548,5.499283 -0.04982,0.179127 0.01947,0.367253 0,0.549928 -0.03248,0.30465 -0.205817,0.59131 -0.263835,0.893634 -0.182066,0.948725 -0.08795,1.929892 -0.08795,2.887124 0,1.098566 -0.167365,2.295114 0.175889,3.36831 0.0821,0.256696 0.301035,0.512239 0.439726,0.756152 0.649523,1.142303 1.519865,1.842114 3.166028,1.99349 0.2038,0.01882 0.411336,-0.0152 0.615617,0 0.833275,0.06202 1.545764,0.137476 2.374521,0.137476 2.360168,0 4.084379,-0.237508 6.068219,-1.443561 0.245981,-0.149542 0.462379,-0.326947 0.703562,-0.481188 0.08181,-0.05231 0.205204,-0.06875 0.263835,-0.137475 0.181805,-0.213159 0.279042,-0.464128 0.439726,-0.687411 0.521211,-0.724261 0.98576,-1.431227 1.407125,-2.199713 0.139538,-0.254482 0.327712,-0.493493 0.439724,-0.756153 0.09455,-0.221682 0.101182,-0.461147 0.175883,-0.687409 0.930584,-2.818578 0.207096,-0.194141 0.791506,-2.54342 0.114135,-0.458756 0.217331,-0.919439 0.351782,-1.374819 0.04169,-0.1412 0.149677,-0.268985 0.175882,-0.412446 0.06233,-0.341006 0.0379,-0.688876 0.08796,-1.031117 0.24164,-1.652682 0.698226,-3.301277 0.967397,-4.949355 0.02237,-0.136375 0,-0.274963 0,-0.412445 0.02932,-0.43536 -0.0069,-0.876456 0.08796,-1.30608 0.05365,-0.2432 0.234518,-0.458274 0.351781,-0.68741 0.05863,-0.412447 0.129231,-0.823961 0.175882,-1.237339 0.140195,-1.241932 0.0063,-2.469691 0.08796,-3.712016 0.02431,-0.368988 0.136647,-0.731662 0.175882,-1.099858 0.05598,-0.525193 -0.0306,-1.054573 0,-1.581043 0.0095,-0.1618573 0.07414,-0.3195223 0.08796,-0.4811873 0.09289,-1.089178 0,-2.205737 0,-3.2995705 0,-0.5496463 0.05018,-1.1196904 -0.175882,-1.649785 -0.04636,-0.1086892 -0.209406,-0.1685899 -0.263837,-0.2749641 -0.02188,-0.042549 0.03016,-0.098185 0,-0.1374821 -0.158902,-0.2069747 -0.494724,-0.4769028 -0.615639,-0.6186694 -0.162787,-0.19086 -0.22838,-0.096093 -0.439726,-0.206223 -0.174223,0.00686 -0.04159,-0.1012524 -0.08794,-0.1374821 -0.0197,-0.015432 -0.456209,-0.221267 -0.527671,-0.1374821 -0.315886,0.3703607 -0.352205,0.8946263 -0.527672,1.3060798 -0.961702,2.2550975 0.07784,-0.6558057 -0.791507,2.0622315 -0.19832,0.62004 -0.44429,1.231071 -0.615616,1.856008 -0.09296,0.33905 -0.102956,0.689086 -0.175882,1.031115 -0.5816,2.7275953 -0.615615,5.3524643 -0.615615,8.1114433 0,1.649785 0,3.29957 0,4.949355 0,0.527015 -0.03847,1.054887 0,1.581043 0.02034,0.278304 0.130249,0.548429 0.175889,0.824892 0.07167,0.434168 0.08382,0.874272 0.175882,1.306081 0.340524,1.59699 0.297935,0.658868 0.527673,1.856009 0.16402,0.85472 0.245185,1.773121 0.527672,2.612159 0.05006,0.148649 0.188208,0.270561 0.263835,0.412447 0.18986,0.356176 0.263476,0.741674 0.439725,1.099856 0.412741,0.838792 1.098656,1.545949 1.758905,2.268454 0.30148,0.329905 0.905747,1.037967 1.407124,1.168598 0.155268,0.04045 0.567841,0 0.703561,0"
   style="fill:none;stroke:#000000;stroke-width:2.14925px;stroke-linecap:butt;stroke-linejoin:miter;stroke-opacity:1" /></svg>
