<?xml version="1.0" encoding="UTF-8" standalone="no"?>
<svg
   xmlns:dc="http://purl.org/dc/elements/1.1/"
   xmlns:cc="http://creativecommons.org/ns#"
   xmlns:rdf="http://www.w3.org/1999/02/22-rdf-syntax-ns#"
   xmlns:svg="http://www.w3.org/2000/svg"
   xmlns="http://www.w3.org/2000/svg"
   xmlns:sodipodi="http://sodipodi.sourceforge.net/DTD/sodipodi-0.dtd"
   xmlns:inkscape="http://www.inkscape.org/namespaces/inkscape"
   inkscape:version="1.0 (4035a4fb49, 2020-05-01)"
   sodipodi:docname="d_3.svg"
   id="svg10"
   viewBox="0 0 52 58"
   style="shape-rendering:geometricPrecision; text-rendering:geometricPrecision; image-rendering:optimizeQuality; fill-rule:evenodd; clip-rule:evenodd"
   version="1.1"
   height="8.9738mm"
   width="8.106mm"
   xml:space="preserve"><metadata
   id="metadata14"><rdf:RDF><cc:Work
       rdf:about=""><dc:format>image/svg+xml</dc:format><dc:type
         rdf:resource="http://purl.org/dc/dcmitype/StillImage" /></cc:Work></rdf:RDF></metadata><sodipodi:namedview
   inkscape:current-layer="svg10"
   inkscape:window-maximized="1"
   inkscape:window-y="-8"
   inkscape:window-x="-8"
   inkscape:cy="16.958362"
   inkscape:cx="15.318425"
   inkscape:zoom="15.862381"
   showgrid="false"
   id="namedview12"
   inkscape:window-height="705"
   inkscape:window-width="1366"
   inkscape:pageshadow="2"
   inkscape:pageopacity="0"
   guidetolerance="10"
   gridtolerance="10"
   objecttolerance="10"
   borderopacity="1"
   bordercolor="#666666"
   pagecolor="#ffffff" />
 <defs
   id="defs4">
  <style
   id="style2"
   type="text/css">
   <![CDATA[
    .str0 {stroke:black;stroke-width:1.29365}
    .fil0 {fill:none}
   ]]>
  </style>
 </defs>
 
<path
   id="path16"
   d="m 34.410356,25.118958 c -1.092884,-0.708539 -2.262249,-1.208574 -3.449815,-1.724907 -0.398202,-0.173131 -0.771816,-0.408278 -1.185872,-0.539033 -0.276274,-0.08725 -0.581924,-0.03541 -0.862454,-0.107807 -0.836543,-0.215882 -1.642826,-0.539488 -2.479555,-0.754647 -1.469602,-0.377897 -3.02871,-0.323419 -4.527879,-0.323419 -0.646841,0 -1.30476,-0.119209 -1.940522,0 -1.400697,0.262629 -0.809103,0.344364 -2.156132,0.862452 -0.100621,0.0387 -0.230978,-0.05546 -0.323421,0 -0.117926,0.07076 -1.688657,1.257432 -1.832714,1.401489 -1.353565,1.353563 -2.497118,3.268983 -3.126394,5.066914 -0.269883,0.771095 -0.354046,1.58555 -0.539033,2.371746 -0.08593,0.365205 -0.25322,0.709516 -0.32342,1.078067 -0.322298,1.692065 -0.107807,3.576144 -0.107807,5.282528 0,1.759454 -0.17965,1.808834 0.32342,3.234201 0.49429,1.400488 2.391729,4.865833 3.557621,5.713753 2.498529,1.817113 -1.283327,-1.242274 2.156133,1.509295 1.50725,1.2058 0.423034,0.666426 2.802974,2.048326 0.912455,0.529813 1.839091,0.780028 2.802974,1.185874 1.14224,0.480942 2.309779,1.12352 3.557621,1.293681 3.123589,0.425943 3.569595,-2.005585 5.066914,-4.312268 4.547306,-7.005307 0.936573,-0.72815 3.557621,-6.144981 0.147665,-0.305169 0.415072,-0.546915 0.539033,-0.862454 0.874824,-2.226823 1.174855,-4.558551 1.509295,-6.899627 0.122441,-0.857049 0.546901,-3.212945 0.646839,-4.312269 0.124647,-1.3711 0,-2.830499 0,-4.20446 0,-2.120199 0,-4.240396 0,-6.360595 0,-1.904584 0,-3.809169 0,-5.713754 0,-2.267819 0.07509,-3.515265 -0.97026,-5.6059481 C 36.506951,7.1039684 35.804753,5.9846977 35.27281,4.7434943 35.158683,4.4771979 34.949182,4.2578473 34.841583,3.9888475 34.669909,3.5596623 34.58566,3.1334265 34.410356,2.6951672 34.227182,2.2372309 33.861435,1.8277705 33.440096,1.6171003 c -0.06428,-0.032142 -0.151324,0.032142 -0.215614,0 -0.287484,-0.1437422 0.32342,-0.1078066 -0.107803,-0.1078066 -0.03593,0 -0.143749,0 -0.107803,0 0.07187,0 0.287485,0 0.215613,0 -0.107803,0 -0.221145,-0.034091 -0.323419,0 -0.207264,0.069088 -0.520269,2.052923 -0.539035,2.1561336 -0.157669,0.8671593 -0.727153,1.7364851 -0.97026,2.5873606 -0.185057,0.6476992 -0.0031,1.673152 -0.107803,2.3717471 -0.08154,0.5436267 -0.239832,1.0737841 -0.323421,1.6171 -0.181804,1.181735 -0.01903,0.957596 -0.215612,1.940521 -0.09402,0.47013 -0.247078,0.928164 -0.323421,1.401487 -0.316948,1.965078 -0.215612,3.947899 -0.215612,5.929368 0,2.551424 0,5.102849 0,7.654275 0,1.94052 0,3.88104 0,5.82156 0,0.898389 -0.05604,1.798527 0,2.695167 0.132564,2.120994 0.687517,3.908824 1.29368,5.929368 0.340482,1.134945 0.790629,2.258516 1.293679,3.342008 1.023701,2.204896 1.184802,2.72505 2.910782,4.204461 0.381116,0.326671 0.618255,0.719454 1.078066,0.97026 0.160866,0.08774 0.369893,0.03733 0.539033,0.107803 0.462776,0.192824 0.946902,0.68062 1.401487,0.862453 0.422564,0.169024 0.875413,0.291805 1.29368,0.431227 0.242042,0.08068 0.293007,0.200407 0.539034,0.323421 0.214766,0.107375 0.242905,-0.114284 0.539034,0.107803 0.06428,0.04821 0.04096,0.171041 0.107803,0.215614 0.149495,0.09966 0.384961,-0.09245 0.539033,0 0.111104,0.06666 0.104503,0.256757 0.215615,0.323419 0.455027,0.273018 1.061648,0.270448 1.509293,0.539033 0.211214,0.126733 0.488237,0.431227 0.754645,0.431227"
   style="fill:none;stroke:#000000;stroke-width:1.71007px;stroke-linecap:butt;stroke-linejoin:miter;stroke-opacity:1" /></svg>
