<?xml version="1.0" encoding="UTF-8" standalone="no"?>
<svg
   xmlns:dc="http://purl.org/dc/elements/1.1/"
   xmlns:cc="http://creativecommons.org/ns#"
   xmlns:rdf="http://www.w3.org/1999/02/22-rdf-syntax-ns#"
   xmlns:svg="http://www.w3.org/2000/svg"
   xmlns="http://www.w3.org/2000/svg"
   xmlns:sodipodi="http://sodipodi.sourceforge.net/DTD/sodipodi-0.dtd"
   xmlns:inkscape="http://www.inkscape.org/namespaces/inkscape"
   inkscape:version="1.0 (4035a4fb49, 2020-05-01)"
   sodipodi:docname="e.svg"
   id="svg10"
   viewBox="0 0 60 69"
   style="shape-rendering:geometricPrecision; text-rendering:geometricPrecision; image-rendering:optimizeQuality; fill-rule:evenodd; clip-rule:evenodd"
   version="1.1"
   height="10.3299mm"
   width="9.0096mm"
   xml:space="preserve"><metadata
   id="metadata14"><rdf:RDF><cc:Work
       rdf:about=""><dc:format>image/svg+xml</dc:format><dc:type
         rdf:resource="http://purl.org/dc/dcmitype/StillImage" /></cc:Work></rdf:RDF></metadata><sodipodi:namedview
   inkscape:current-layer="svg10"
   inkscape:window-maximized="1"
   inkscape:window-y="-8"
   inkscape:window-x="-8"
   inkscape:cy="19.52107"
   inkscape:cx="17.026015"
   inkscape:zoom="13.779982"
   showgrid="false"
   id="namedview12"
   inkscape:window-height="705"
   inkscape:window-width="1366"
   inkscape:pageshadow="2"
   inkscape:pageopacity="0"
   guidetolerance="10"
   gridtolerance="10"
   objecttolerance="10"
   borderopacity="1"
   bordercolor="#666666"
   pagecolor="#ffffff" />
 <defs
   id="defs4">
  <style
   id="style2"
   type="text/css">
   <![CDATA[
    .str0 {stroke:black;stroke-width:1.33978}
    .fil0 {fill:none}
   ]]>
  </style>
 </defs>
 
<path
   id="path16"
   d="m 16.503905,34.530051 c 1.482779,1.020544 3.634953,0.967664 5.420059,1.45542 2.233619,0.610306 4.583334,0.991056 6.915247,1.293708 1.293815,0.167909 2.616578,0 3.92487,0 3.708871,0 7.563064,0.267123 10.279419,-2.263986 0.721904,-0.672677 1.535755,-1.302205 2.055884,-2.102277 1.840825,-2.831586 2.232295,-6.249349 2.803477,-9.379376 0.32015,-1.754384 1.404375,-5.250365 0.560699,-6.953674 -0.274377,-0.553942 -0.660119,-1.063194 -0.934495,-1.617136 -0.802882,-1.620944 0.971056,0.650363 -0.934493,-1.94056 -0.141908,-0.192944 -0.409122,-0.297784 -0.560694,-0.485141 -0.288035,-0.35603 -0.408197,-0.811633 -0.747595,-1.131993 -0.362135,-0.341821 -0.882577,-0.526891 -1.30829,-0.808568 C 43.344236,10.177138 42.778837,9.677775 42.109006,9.3027619 40.45073,8.3743492 37.904214,7.7503623 35.941353,7.5239142 c -0.308764,-0.03562 -0.626806,0.042039 -0.93449,0 -0.881079,-0.120365 -1.75122,-0.2979522 -2.61658,-0.4851397 -0.382254,-0.08269 -0.730074,-0.2835931 -1.121394,-0.3234274 -0.949034,-0.09661 -5.601034,-0.1133922 -6.354549,0 -0.604503,0.090961 -1.11419,0.445839 -1.682087,0.6468535 -4.850543,1.7169213 -5.822385,2.5746532 -8.410435,6.3068234 -0.709535,1.023203 -1.19528,2.139127 -1.682085,3.234267 -0.440525,0.991021 -1.107128,1.903533 -1.495191,2.91084 -0.11983,0.311064 -0.08718,0.653947 -0.186897,0.970282 -0.81769,2.594181 -1.9568243,5.036547 -2.8034779,7.600528 -0.051336,0.155499 0.034446,0.326198 0,0.48514 -0.1531784,0.706858 -0.4162497,1.394044 -0.5606954,2.102276 -0.4750762,2.329324 -0.1868988,4.926019 -0.1868988,7.277101 0,1.797192 -0.2170963,3.713767 0,5.498257 0.3702722,3.043584 3.5064181,9.987593 5.9807531,12.128503 2.2401,1.93824 5.153201,2.749175 8.036638,3.719409 1.578263,0.531063 3.251906,1.353866 4.859363,1.778846 5.097392,1.347654 3.453536,0.605602 7.662839,1.455422 0.883367,0.178341 1.72329,0.510454 2.616579,0.646854 1.849729,0.282434 3.757231,0.202695 5.60696,0.485139 0.446644,0.06819 0.857515,0.280091 1.308288,0.323427 1.644359,0.158083 4.260625,0.135308 5.980754,0 0.929457,-0.07312 1.365329,-0.429936 2.242783,-0.646854 0.941398,-0.232725 1.22292,0.07388 2.055883,-0.646852"
   style="fill:none;stroke:#000000;stroke-width:2.39566px;stroke-linecap:butt;stroke-linejoin:miter;stroke-opacity:1" /></svg>
