<?xml version="1.0" encoding="UTF-8" standalone="no"?>
<svg
   xmlns:dc="http://purl.org/dc/elements/1.1/"
   xmlns:cc="http://creativecommons.org/ns#"
   xmlns:rdf="http://www.w3.org/1999/02/22-rdf-syntax-ns#"
   xmlns:svg="http://www.w3.org/2000/svg"
   xmlns="http://www.w3.org/2000/svg"
   xmlns:sodipodi="http://sodipodi.sourceforge.net/DTD/sodipodi-0.dtd"
   xmlns:inkscape="http://www.inkscape.org/namespaces/inkscape"
   inkscape:version="1.0 (4035a4fb49, 2020-05-01)"
   sodipodi:docname="e_2.svg"
   xml:space="preserve"
   style="enable-background:new 0 0 20.9 13;"
   viewBox="0 0 20.9 13"
   height="13px"
   width="20.9px"
   y="0px"
   x="0px"
   id="Слой_1"
   version="1.1"><metadata
   id="metadata12"><rdf:RDF><cc:Work
       rdf:about=""><dc:format>image/svg+xml</dc:format><dc:type
         rdf:resource="http://purl.org/dc/dcmitype/StillImage" /></cc:Work></rdf:RDF></metadata><defs
   id="defs10" /><sodipodi:namedview
   inkscape:current-layer="Слой_1"
   inkscape:window-maximized="1"
   inkscape:window-y="-8"
   inkscape:window-x="-8"
   inkscape:cy="6.5"
   inkscape:cx="10.45"
   inkscape:zoom="41.384615"
   showgrid="false"
   id="namedview8"
   inkscape:window-height="705"
   inkscape:window-width="1366"
   inkscape:pageshadow="2"
   inkscape:pageopacity="0"
   guidetolerance="10"
   gridtolerance="10"
   objecttolerance="10"
   borderopacity="1"
   bordercolor="#666666"
   pagecolor="#ffffff" />
<style
   id="style2"
   type="text/css">
	.st0{fill:none;stroke:#000000;stroke-width:1.6746;}
</style>

<path
   id="path14"
   d="m 4.1561338,6.9591078 c 0.080545,0.024164 0.1579112,0.064642 0.2416357,0.072491 0.1764259,0.01654 0.354399,0 0.5315985,0 0.4107807,0 0.8215614,0 1.232342,0 0.7004434,0 1.6687576,0.058506 2.3680298,-0.048327 0.3910874,-0.059749 1.305445,-0.3501127 1.6672862,-0.507435 0.283341,-0.1231915 0.473368,-0.4137508 0.67658,-0.6282528 0.266605,-0.2814169 0.579172,-0.5168162 0.845725,-0.7973977 0.228035,-0.2400368 0.364682,-0.5646023 0.531598,-0.8457249 0.119889,-0.2019177 0.251947,-0.3968884 0.362454,-0.6040893 0.01933,-0.036238 0.01035,-0.08214 0.02416,-0.1208178 0.02668,-0.074706 0.06444,-0.1449814 0.09666,-0.2174721 C 12.834952,3.0353919 12.947596,2.8058887 13,2.5613383 c 0.02239,-0.1044716 0.0153,-0.2319832 0.02416,-0.33829 5.95e-4,-0.00714 0.0428,-0.2006286 0.02416,-0.2416357 -0.03144,-0.069175 -0.08897,-0.1243161 -0.120818,-0.1933085 -0.01721,-0.03729 -0.0058,-0.084084 -0.02416,-0.1208179 C 12.839163,1.5389202 12.666405,1.3258948 12.565056,1.232342 12.393614,1.0740881 12.139196,1.0019949 11.936803,0.89405204 11.634391,0.73276568 11.974617,0.83727218 11.526022,0.70074349 10.971413,0.53194945 10.405323,0.55576208 9.8345725,0.55576208 c -0.2784597,0 -0.642317,-0.0367865 -0.9182156,0 C 8.8204724,0.56854667 8.5225538,0.66448153 8.3847584,0.70074349 7.7922164,0.8566756 7.2329777,1.1054712 6.7416357,1.4739777 6.5305255,1.6323104 6.3408414,1.8159077 6.16171,2.0055762 6.0287496,2.1463578 5.8748971,2.2675955 5.7509294,2.4163569 5.3300099,2.9214602 6.122097,2.0669062 5.4851301,2.7788104 5.4091767,2.8636995 5.3240397,2.9399009 5.2434944,3.0204461 5.1226766,3.157373 5.0006369,3.2932314 4.8810409,3.4312268 4.7500088,3.5824176 4.6098009,3.7268836 4.4944238,3.8903346 4.4338616,3.976131 4.3866414,4.070908 4.3252788,4.1561338 4.2047388,4.3235505 4.0467811,4.4637111 3.9386617,4.6394052 3.8423075,4.7959808 3.7616752,4.9617035 3.6728625,5.1226766 3.5715414,5.306321 3.4204576,5.5020071 3.3587361,5.7026022 3.2397109,6.0894339 3.1747089,6.4852776 3.1412639,6.8866171 c -0.048215,0.5785858 -0.089439,1.2298254 0.096654,1.7881041 0.028477,0.085431 0.081964,0.1603964 0.1208179,0.2416357 0.049757,0.104037 0.08262,0.217119 0.1449814,0.3141264 0.083667,0.1301491 0.1995578,0.236891 0.2899628,0.3624535 0.054884,0.076228 0.080201,0.1736166 0.1449814,0.2416357 0.066528,0.069854 0.5325567,0.4077215 0.6282528,0.4832715 0.058285,0.04601 0.1063598,0.105327 0.169145,0.144981 0.2114118,0.133524 0.4563333,0.198759 0.6765799,0.314127 0.2176887,0.114027 0.4139479,0.237201 0.6524164,0.314126 0.1809566,0.138338 0.4066394,0.0644 0.6040892,0.120818 0.115132,0.03289 0.2243332,0.08406 0.3382899,0.120818 0.3484539,0.112404 0.692259,0.219396 1.0390335,0.33829 0.1270117,0.04355 0.4283614,0.166273 0.6040892,0.193308 0.2804439,0.04315 0.565045,0.05507 0.8457249,0.09666 0.081254,0.01204 0.1600994,0.03838 0.2416357,0.04833 0.2490119,0.03037 0.5010241,0.03505 0.7490711,0.07249 0.179683,0.02712 0.351096,0.09983 0.531598,0.120818 0.168013,0.01954 0.33829,0 0.507435,0 0.346345,0 0.692689,0 1.039034,0 0.33829,0 0.67658,0 1.01487,0 0.272277,0 0.551563,0.02084 0.821561,-0.02416 0.275164,-0.04586 0.611373,-0.155464 0.869888,-0.241636 0.39092,-0.130307 0.318178,-0.163719 0.652417,-0.314126 0.331177,-0.14903 0.384981,-0.07642 0.773234,-0.289963 0.02545,-0.014 0.02509,-0.05507 0.04833,-0.07249 0.0934,-0.07005 0.197325,-0.0906 0.265799,-0.193309 0.0246,-0.0369 0.04859,-0.193308 0.07249,-0.193308"
   style="fill:none;stroke:#000000;stroke-width:1px;stroke-linecap:butt;stroke-linejoin:miter;stroke-opacity:1" /></svg>
