<?xml version="1.0" encoding="UTF-8" standalone="no"?>
<svg
   xmlns:dc="http://purl.org/dc/elements/1.1/"
   xmlns:cc="http://creativecommons.org/ns#"
   xmlns:rdf="http://www.w3.org/1999/02/22-rdf-syntax-ns#"
   xmlns:svg="http://www.w3.org/2000/svg"
   xmlns="http://www.w3.org/2000/svg"
   xmlns:sodipodi="http://sodipodi.sourceforge.net/DTD/sodipodi-0.dtd"
   xmlns:inkscape="http://www.inkscape.org/namespaces/inkscape"
   inkscape:version="1.0 (4035a4fb49, 2020-05-01)"
   sodipodi:docname="f.svg"
   id="svg10"
   viewBox="0 0 402 579"
   style="shape-rendering:geometricPrecision; text-rendering:geometricPrecision; image-rendering:optimizeQuality; fill-rule:evenodd; clip-rule:evenodd"
   version="1.1"
   height="10.4918mm"
   width="7.2904mm"
   xml:space="preserve"><metadata
   id="metadata14"><rdf:RDF><cc:Work
       rdf:about=""><dc:format>image/svg+xml</dc:format><dc:type
         rdf:resource="http://purl.org/dc/dcmitype/StillImage" /></cc:Work></rdf:RDF></metadata><sodipodi:namedview
   inkscape:current-layer="svg10"
   inkscape:window-maximized="1"
   inkscape:window-y="-8"
   inkscape:window-x="-8"
   inkscape:cy="19.827024"
   inkscape:cx="13.777134"
   inkscape:zoom="13.567341"
   showgrid="false"
   id="namedview12"
   inkscape:window-height="705"
   inkscape:window-width="1366"
   inkscape:pageshadow="2"
   inkscape:pageopacity="0"
   guidetolerance="10"
   gridtolerance="10"
   objecttolerance="10"
   borderopacity="1"
   bordercolor="#666666"
   pagecolor="#ffffff" />
 <defs
   id="defs4">
  <style
   id="style2"
   type="text/css">
   <![CDATA[
    .str0 {stroke:black;stroke-width:11.0317}
    .fil0 {fill:none}
   ]]>
  </style>
 </defs>
 
<path
   id="path16"
   d="m 307.66553,57.001713 c -1.93479,-1.588995 -3.66797,-3.363191 -5.80472,-4.766992 -1.1331,-0.74448 -3.05558,0.532974 -4.35356,0 -2.16328,-0.888286 -3.64144,-2.68697 -5.80473,-3.575247 -2.59595,-1.065932 -5.86109,0.467442 -8.70709,0 -0.67079,-0.110105 -0.78046,-1.081567 -1.45125,-1.191741 -11.58284,-1.902427 -24.42439,-1.191742 -36.27957,-1.191742 -10.46877,0 -43.07806,-1.736801 -52.24257,0 -6.69374,1.268554 -17.60773,5.70908 -23.21885,8.342226 -5.49239,2.577425 -16.77642,4.446296 -20.31656,9.533986 -4.34581,6.245541 -6.03914,14.456734 -7.25592,21.451469 -1.84278,10.593317 4.29981,-7.503601 0,11.917482 -0.38698,1.747899 -2.37768,3.043486 -2.90237,4.766996 -2.42022,7.95023 0,21.27184 0,29.79371 0,23.83496 0,47.66992 0,71.50488 0,47.2727 0,94.54537 0,141.81806 0,23.22745 -2.16858,47.16142 0,70.31314 1.27402,13.6012 3.86615,26.9872 5.80474,40.51945 1.11174,7.76038 2.30695,16.01151 2.90236,23.83496 0.24141,3.17182 -0.60353,6.39488 0,9.534 0.86019,4.47391 3.01588,8.71512 4.35356,13.10922 1.72433,5.6643 -0.73132,17.26626 1.45117,22.64323 0.43265,1.06601 2.2905,1.37855 2.90237,2.3835 1.98741,3.26421 0,31.67492 0,38.13594"
   style="fill:none;stroke:#000000;stroke-width:17.8422px;stroke-linecap:butt;stroke-linejoin:miter;stroke-opacity:1" /><path
   id="path18"
   d="m 50.806213,256.02367 c 1.934906,-0.39726 3.815338,-1.07507 5.804729,-1.1918 28.260993,-1.65776 57.263978,0 85.619768,0 60.94967,0 121.89934,0 182.84902,0"
   style="fill:none;stroke:#000000;stroke-width:17.8422px;stroke-linecap:butt;stroke-linejoin:miter;stroke-opacity:1" /></svg>
