<?xml version="1.0" encoding="UTF-8" standalone="no"?>
<svg
   xmlns:dc="http://purl.org/dc/elements/1.1/"
   xmlns:cc="http://creativecommons.org/ns#"
   xmlns:rdf="http://www.w3.org/1999/02/22-rdf-syntax-ns#"
   xmlns:svg="http://www.w3.org/2000/svg"
   xmlns="http://www.w3.org/2000/svg"
   xmlns:sodipodi="http://sodipodi.sourceforge.net/DTD/sodipodi-0.dtd"
   xmlns:inkscape="http://www.inkscape.org/namespaces/inkscape"
   inkscape:version="1.0 (4035a4fb49, 2020-05-01)"
   sodipodi:docname="f_2.svg"
   id="svg10"
   viewBox="0 0 14 21"
   style="shape-rendering:geometricPrecision; text-rendering:geometricPrecision; image-rendering:optimizeQuality; fill-rule:evenodd; clip-rule:evenodd"
   version="1.0"
   height="5.7082mm"
   width="3.6319mm"
   xml:space="preserve"><metadata
   id="metadata14"><rdf:RDF><cc:Work
       rdf:about=""><dc:format>image/svg+xml</dc:format><dc:type
         rdf:resource="http://purl.org/dc/dcmitype/StillImage" /></cc:Work></rdf:RDF></metadata><sodipodi:namedview
   inkscape:current-layer="svg10"
   inkscape:window-maximized="1"
   inkscape:window-y="-8"
   inkscape:window-x="-8"
   inkscape:cy="10.78715"
   inkscape:cx="6.8634332"
   inkscape:zoom="24.937079"
   showgrid="false"
   id="namedview12"
   inkscape:window-height="705"
   inkscape:window-width="1366"
   inkscape:pageshadow="2"
   inkscape:pageopacity="0"
   guidetolerance="10"
   gridtolerance="10"
   objecttolerance="10"
   borderopacity="1"
   bordercolor="#666666"
   pagecolor="#ffffff" />
 <defs
   id="defs4">
  <style
   id="style2"
   type="text/css">
   <![CDATA[
    .str0 {stroke:black;stroke-width:0.748068}
    .fil0 {fill:none}
   ]]>
  </style>
 </defs>
 
<path
   id="path16"
   d="M 9.0610862,1.5482021 C 8.81813,1.5828461 8.9230011,1.3667996 8.8244176,1.3029504 8.567665,1.1366605 7.6165806,1.1803245 7.3097384,1.1803245 c -0.9681529,0 -1.7544657,0.4339023 -2.2246849,1.1445078 C 4.9612204,2.5119712 4.8935533,2.7382595 4.8010511,2.9379613 4.7564244,3.0343052 4.6900109,3.1238262 4.6590498,3.2240882 4.5561228,3.5574004 4.5381598,3.9061116 4.469715,4.24597 4.4177139,4.5041782 4.3850278,4.7652322 4.3277138,5.0226002 4.3231643,5.0430296 4.1478129,5.6444423 4.138379,5.7992304 c -0.072667,1.192282 0,2.4022981 0,3.5970241 0,1.6077605 0,3.2155215 0,4.8232825 0,0.814336 -0.0377,1.638617 0,2.452517 0.02176,0.469772 0.059088,0.965236 0.1420011,1.430634 0.049813,0.279599 0.058824,-0.05436 0.094668,0.286127 0.023973,0.227729 -0.032912,0.467509 0,0.694879 0.041805,0.288811 0.1420012,0.574264 0.1420012,0.858381"
   style="fill:none;stroke:#000000;stroke-width:1.09689px;stroke-linecap:butt;stroke-linejoin:miter;stroke-opacity:1" /><path
   id="path18"
   d="M 0.77768451,10.050258 C 1.1112505,10.073988 1.3903107,9.9482378 1.724359,9.9276335 c 0.5737683,-0.035391 1.1760699,0 1.7513477,0 0.8846011,0 1.7692312,0.00561 2.6506886,0.081747 0.459599,0.0397 0.9126835,0.12739 1.372678,0.163502 0.220544,0.01732 0.4434444,0.01383 0.6626721,0.04088 0.7257396,0.08953 1.4449319,0.266766 2.1773516,0.327002 0.260447,0.02143 0.592214,-0.04985 0.852007,0 0.26119,0.05012 0.483572,0.163501 0.75734,0.163501"
   style="fill:none;stroke:#000000;stroke-width:1.09689px;stroke-linecap:butt;stroke-linejoin:miter;stroke-opacity:1" /></svg>
