<?xml version="1.0" encoding="UTF-8" standalone="no"?>
<svg
   xmlns:dc="http://purl.org/dc/elements/1.1/"
   xmlns:cc="http://creativecommons.org/ns#"
   xmlns:rdf="http://www.w3.org/1999/02/22-rdf-syntax-ns#"
   xmlns:svg="http://www.w3.org/2000/svg"
   xmlns="http://www.w3.org/2000/svg"
   xmlns:sodipodi="http://sodipodi.sourceforge.net/DTD/sodipodi-0.dtd"
   xmlns:inkscape="http://www.inkscape.org/namespaces/inkscape"
   inkscape:version="1.0 (4035a4fb49, 2020-05-01)"
   sodipodi:docname="h.svg"
   id="svg10"
   viewBox="0 0 202 415"
   style="shape-rendering:geometricPrecision; text-rendering:geometricPrecision; image-rendering:optimizeQuality; fill-rule:evenodd; clip-rule:evenodd"
   version="1.1"
   height="17.5654mm"
   width="8.5357mm"
   xml:space="preserve"><metadata
   id="metadata14"><rdf:RDF><cc:Work
       rdf:about=""><dc:format>image/svg+xml</dc:format><dc:type
         rdf:resource="http://purl.org/dc/dcmitype/StillImage" /></cc:Work></rdf:RDF></metadata><sodipodi:namedview
   inkscape:current-layer="svg10"
   inkscape:window-maximized="1"
   inkscape:window-y="-8"
   inkscape:window-x="-8"
   inkscape:cy="33.194455"
   inkscape:cx="16.130456"
   inkscape:zoom="8.1037631"
   showgrid="false"
   id="namedview12"
   inkscape:window-height="705"
   inkscape:window-width="1366"
   inkscape:pageshadow="2"
   inkscape:pageopacity="0"
   guidetolerance="10"
   gridtolerance="10"
   objecttolerance="10"
   borderopacity="1"
   bordercolor="#666666"
   pagecolor="#ffffff" />
 <defs
   id="defs4">
  <style
   id="style2"
   type="text/css">
   <![CDATA[
    .str0 {stroke:black;stroke-width:4.72884}
    .fil0 {fill:none}
   ]]>
  </style>
 </defs>
 
<path
   id="path16"
   d="m 57.949438,30.561054 c -0.515106,1.287765 -1.362012,2.488496 -1.545318,3.863296 -0.885019,6.637638 0.155691,13.394568 0,20.089138 -0.605438,26.033802 -0.77266,51.991972 -0.77266,78.038572 0,57.43434 0,114.86867 0,172.303 0,4.3784 0,8.7568 0,13.13521 0,16.52729 1.177842,33.73307 0,50.22284 -0.24047,3.36662 -0.772658,6.57252 -0.772658,10.04457 0,1.0122 -0.190355,8.49925 -1.545319,8.49925"
   style="fill:none;stroke:#000000;stroke-width:6.26145px;stroke-linecap:butt;stroke-linejoin:miter;stroke-opacity:1" /><path
   id="path18"
   d="m 183.12022,392.93821 c 0,-3.17219 -1.91847,-10.41773 -3.86329,-12.36255 -0.38633,-0.38633 -1.15899,-0.38633 -1.54532,-0.77266 -0.36423,-0.36423 0.23036,-1.0846 0,-1.54532 -0.51743,-1.03488 -1.8433,-1.07064 -2.31798,-1.54532 -0.66673,-0.66673 -1.69553,-3.24084 -2.31798,-3.86329 -0.18214,-0.18215 -0.54229,0.11515 -0.77265,0 -0.76846,-0.38423 -5.9069,-7.17778 -6.18128,-7.7266 -3.07281,-6.14562 -5.85539,-12.4554 -7.72659,-19.31647 -0.75766,-2.77807 -0.71789,-5.74117 -1.54532,-8.49925 -0.26683,-0.88946 -1.36317,-1.40739 -1.54531,-2.31798 -0.35359,-1.76786 0.17939,-3.61469 0,-5.40862 -0.28121,-2.81196 -1.91725,-5.69394 -2.31799,-8.49925 -0.46346,-3.24425 -0.12976,-6.83014 -0.77265,-10.04457 -0.36772,-1.8386 -1.17759,-3.57001 -1.54532,-5.40861 -0.47512,-2.37573 0,-5.29574 0,-7.72659 0,-7.05788 0.60702,-14.73607 -0.77266,-21.63446 -0.91764,-4.58822 -3.31323,-9.23235 -3.8633,-13.90786 -0.84886,-7.21531 0.27753,-14.89813 -3.09063,-21.63446 -9.62308,-19.24615 -43.9387,-21.66018 -62.585396,-16.9985 -6.309353,1.57734 -10.992433,6.7005 -16.998501,9.27191 -2.273538,3.52636 -2.317978,3.47399 -2.317978,6.18127"
   style="fill:none;stroke:#000000;stroke-width:6.26145px;stroke-linecap:butt;stroke-linejoin:miter;stroke-opacity:1" /></svg>
