<?xml version="1.0" encoding="UTF-8" standalone="no"?>
<svg
   xmlns:dc="http://purl.org/dc/elements/1.1/"
   xmlns:cc="http://creativecommons.org/ns#"
   xmlns:rdf="http://www.w3.org/1999/02/22-rdf-syntax-ns#"
   xmlns:svg="http://www.w3.org/2000/svg"
   xmlns="http://www.w3.org/2000/svg"
   xmlns:sodipodi="http://sodipodi.sourceforge.net/DTD/sodipodi-0.dtd"
   xmlns:inkscape="http://www.inkscape.org/namespaces/inkscape"
   inkscape:version="1.0 (4035a4fb49, 2020-05-01)"
   sodipodi:docname="i.svg"
   id="svg12"
   viewBox="0 0 33 89"
   style="shape-rendering:geometricPrecision; text-rendering:geometricPrecision; image-rendering:optimizeQuality; fill-rule:evenodd; clip-rule:evenodd"
   version="1.1"
   height="15.4777mm"
   width="5.632mm"
   xml:space="preserve"><metadata
   id="metadata16"><rdf:RDF><cc:Work
       rdf:about=""><dc:format>image/svg+xml</dc:format><dc:type
         rdf:resource="http://purl.org/dc/dcmitype/StillImage" /></cc:Work></rdf:RDF></metadata><sodipodi:namedview
   inkscape:current-layer="svg12"
   inkscape:window-maximized="1"
   inkscape:window-y="-8"
   inkscape:window-x="-8"
   inkscape:cy="29.249197"
   inkscape:cx="10.64315"
   inkscape:zoom="9.1968336"
   showgrid="false"
   id="namedview14"
   inkscape:window-height="705"
   inkscape:window-width="1366"
   inkscape:pageshadow="2"
   inkscape:pageopacity="0"
   guidetolerance="10"
   gridtolerance="10"
   objecttolerance="10"
   borderopacity="1"
   bordercolor="#666666"
   pagecolor="#ffffff" />
 <defs
   id="defs4">
  <style
   id="style2"
   type="text/css">
   <![CDATA[
    .str0 {stroke:black;stroke-width:1.15573}
    .fil0 {fill:none}
   ]]>
  </style>
 </defs>
 
<path
   id="path18"
   d="m 15.171131,31.183118 c 0,17.9806 0,35.961201 0,53.9418"
   style="fill:none;stroke:#000000;stroke-width:1.55029px;stroke-linecap:butt;stroke-linejoin:miter;stroke-opacity:1" /><path
   id="path20"
   d="m 9.7769513,10.280671 c 2.1231617,0.209152 0.2683337,-0.8239215 0.5057047,-1.1799769 0.951703,-1.4275553 3.100369,-2.1649284 4.719907,-1.5171132 0.126713,0.050685 1.383437,1.0463002 1.517113,1.1799768 0.125635,0.1256435 0.07714,0.3533396 0.168568,0.5057044 0.737964,1.2299409 1.127615,2.5138189 1.517113,3.8770669 0.04631,0.162082 -0.07539,0.354933 0,0.505704 0.09373,0.187459 0.599347,2.266312 0.337136,2.528523 -0.438612,0.438612 -0.57158,0.117218 -1.011408,0.337136 -0.907791,0.453895 -1.178594,0.337136 -2.191386,0.337136 -0.495697,0 -2.081831,0.01685 -2.359953,-0.168568 -0.132236,-0.08817 -0.194988,-0.266061 -0.337137,-0.337136 -0.150772,-0.07539 -0.386508,0.119202 -0.505704,0 -0.03973,-0.03973 0.05026,-0.143433 0,-0.168568 -0.288259,-0.144131 -0.640111,-0.100242 -0.842841,-0.505706 -0.1386,-0.2772 -0.02997,-0.39707 -0.168568,-0.674272 -0.144907,-0.289815 -0.413205,-0.304277 -0.505704,-0.674272 -0.07933,-0.317305 0.07933,-0.694104 0,-1.011409 -0.01927,-0.07709 -0.143439,-0.09318 -0.168568,-0.168568 -0.06743,-0.202282 0.06743,-0.471991 0,-0.674272 -0.264044,-0.792131 -0.281063,-1.404968 -0.6742727,-2.191386 z"
   style="fill:none;stroke:#000000;stroke-width:1.55029px;stroke-linecap:butt;stroke-linejoin:miter;stroke-opacity:1" /></svg>
