<?xml version="1.0" encoding="UTF-8" standalone="no"?>
<svg
   xmlns:dc="http://purl.org/dc/elements/1.1/"
   xmlns:cc="http://creativecommons.org/ns#"
   xmlns:rdf="http://www.w3.org/1999/02/22-rdf-syntax-ns#"
   xmlns:svg="http://www.w3.org/2000/svg"
   xmlns="http://www.w3.org/2000/svg"
   xmlns:sodipodi="http://sodipodi.sourceforge.net/DTD/sodipodi-0.dtd"
   xmlns:inkscape="http://www.inkscape.org/namespaces/inkscape"
   inkscape:version="1.0 (4035a4fb49, 2020-05-01)"
   sodipodi:docname="i_2.svg"
   id="svg12"
   viewBox="0 0 13 30"
   style="shape-rendering:geometricPrecision; text-rendering:geometricPrecision; image-rendering:optimizeQuality; fill-rule:evenodd; clip-rule:evenodd"
   version="1.0"
   height="6.6537mm"
   width="2.8857mm"
   xml:space="preserve"><metadata
   id="metadata16"><rdf:RDF><cc:Work
       rdf:about=""><dc:format>image/svg+xml</dc:format><dc:type
         rdf:resource="http://purl.org/dc/dcmitype/StillImage" /></cc:Work></rdf:RDF></metadata><sodipodi:namedview
   inkscape:current-layer="svg12"
   inkscape:window-maximized="1"
   inkscape:window-y="-8"
   inkscape:window-x="-8"
   inkscape:cy="12.573921"
   inkscape:cx="5.4532913"
   inkscape:zoom="21.393486"
   showgrid="false"
   id="namedview14"
   inkscape:window-height="705"
   inkscape:window-width="1366"
   inkscape:pageshadow="2"
   inkscape:pageopacity="0"
   guidetolerance="10"
   gridtolerance="10"
   objecttolerance="10"
   borderopacity="1"
   bordercolor="#666666"
   pagecolor="#ffffff" />
 <defs
   id="defs4">
  <style
   id="style2"
   type="text/css">
   <![CDATA[
    .str0 {stroke:black;stroke-width:0.897856}
    .fil0 {fill:none}
   ]]>
  </style>
 </defs>
 
<path
   id="path18"
   d="m 5.6822541,10.594796 c -0.2198108,0.316237 -0.1211483,0.657682 -0.1672863,1.003717 -0.068524,0.513928 -0.1418285,1.053715 -0.2230483,1.561338 -0.062777,0.392362 -0.1652359,0.77788 -0.2230483,1.171004 -0.018048,0.122724 -0.1078363,1.498646 -0.1115237,1.561338 -0.096035,1.632578 -0.055762,3.272012 -0.055762,4.907064 0,2.304832 0,4.609665 0,6.914498"
   style="fill:none;stroke:#000000;stroke-width:1.19295px;stroke-linecap:butt;stroke-linejoin:miter;stroke-opacity:1" /><path
   id="path20"
   d="M 4.3997262,3.6802974 C 4.6023026,3.5528107 6.0910242,3.1968741 6.2398749,3.3457248 6.4698539,3.5757038 6.5327974,3.9792464 6.4629232,4.2936803 6.4085034,4.5385695 6.3230506,4.8101807 6.1841128,5.0185874 6.0968296,5.1495122 5.9918756,5.3935164 5.8495403,5.464684 5.5351874,5.6218604 4.9522777,5.2378337 4.7342987,5.0743495 4.5909839,4.9668633 4.3919147,4.5646792 4.2882021,4.4609666 c -0.04803,-0.04803 -0.1306543,-0.4691953 0,-0.5018587 0.054098,-0.013524 0.1122824,0.00916 0.1672862,0 C 4.6151816,3.932492 4.6429325,3.8475842 4.7900608,3.8475842"
   style="fill:none;stroke:#000000;stroke-width:1.19295px;stroke-linecap:butt;stroke-linejoin:miter;stroke-opacity:1" /></svg>
