<?xml version="1.0" encoding="UTF-8" standalone="no"?>
<svg
   xmlns:dc="http://purl.org/dc/elements/1.1/"
   xmlns:cc="http://creativecommons.org/ns#"
   xmlns:rdf="http://www.w3.org/1999/02/22-rdf-syntax-ns#"
   xmlns:svg="http://www.w3.org/2000/svg"
   xmlns="http://www.w3.org/2000/svg"
   xmlns:sodipodi="http://sodipodi.sourceforge.net/DTD/sodipodi-0.dtd"
   xmlns:inkscape="http://www.inkscape.org/namespaces/inkscape"
   inkscape:version="1.0 (4035a4fb49, 2020-05-01)"
   sodipodi:docname="j_2.svg"
   id="svg12"
   viewBox="0 0 21000 29700"
   style="shape-rendering:geometricPrecision; text-rendering:geometricPrecision; image-rendering:optimizeQuality; fill-rule:evenodd; clip-rule:evenodd"
   version="1.1"
   height="297mm"
   width="210mm"
   xml:space="preserve"><metadata
   id="metadata16"><rdf:RDF><cc:Work
       rdf:about=""><dc:format>image/svg+xml</dc:format><dc:type
         rdf:resource="http://purl.org/dc/dcmitype/StillImage" /></cc:Work></rdf:RDF></metadata><sodipodi:namedview
   inkscape:current-layer="svg12"
   inkscape:window-maximized="1"
   inkscape:window-y="-8"
   inkscape:window-x="-8"
   inkscape:cy="477.80113"
   inkscape:cx="396.85039"
   inkscape:zoom="0.4792789"
   showgrid="false"
   id="namedview14"
   inkscape:window-height="705"
   inkscape:window-width="1366"
   inkscape:pageshadow="2"
   inkscape:pageopacity="0"
   guidetolerance="10"
   gridtolerance="10"
   objecttolerance="10"
   borderopacity="1"
   bordercolor="#666666"
   pagecolor="#ffffff" />
 <defs
   id="defs4">
  <style
   id="style2"
   type="text/css">
   <![CDATA[
    .str0 {stroke:black;stroke-width:19.91}
    .fil0 {fill:none}
   ]]>
  </style>
 </defs>
 
<path
   d="m 11120.759,7219.3332 c 48.447,957.4728 74.681,1915.791 103.339,2874.0228 43.192,1505.39 51.37,3011.197 50.408,4517.096 7.86,1218.107 4.663,2436.24 2.053,3654.358 38.548,1202.939 -142.993,2395.508 -375.817,3571.565 -152.526,787.943 -437.382,1538.861 -737.343,2280.074 -187.7179,460.818 -426.3806,898.888 -711.0103,1306.622 -149.3118,195.879 -306.1491,389.246 -496.0803,547.842 -108.966,90.988 -147.7872,108.956 -267.4405,182.447 1042.1826,-603.617 521.3866,-278.017 241.2997,-228.154 -190.5003,33.915 -387.2873,18.803 -579.1734,12.783 -575.5683,-27.398 -1146.6111,-103.307 -1711.8679,-212.898 -339.6549,-78.692 -687.5053,-138.066 -1016.6887,-255.979 -207.2524,-80.108 -391.6553,-204.654 -573.9998,-329.365 -44.5048,-31.083 -89.0093,-62.166 -133.514,-93.249 0,0 -670.7066,427.162 -670.7066,427.162 v 0 c 44.2317,31.227 88.4637,62.454 132.6957,93.68 182.4413,132.006 363.0633,272.73 575.7119,353.108 338.692,128.53 709.9035,156.669 1060.1319,241.778 562.5074,107.454 1128.3537,199.062 1700.5461,235.007 191.2808,10.038 392.8489,31.498 584.231,10.441 411.3837,-45.263 811.7856,-385.005 1132.7889,-543.247 296.486,-201.781 540.0278,-459.064 742.1623,-755.708 272.658,-413.31 507.068,-850.144 684.536,-1313.275 287.49,-738.356 552.429,-1488.689 687.83,-2272.229 213.235,-1182.174 397.105,-2376.001 365.79,-3581.497 -2.937,-1216.437 -6.223,-2432.868 -13.159,-3649.291 -24.13,-1501.523 -53.143,-3002.961 -76.812,-4504.4707 -8.094,-978.93 -18.958,-1958.9991 23.627,-2937.2838 0,0 -723.538,368.6607 -723.538,368.6607 z"
   id="path853"
   style="fill:#000000;fill-opacity:1;fill-rule:nonzero;stroke:none;stroke-width:26.4583" /><path
   d="m 10435.043,1945.0975 c 259.841,-108.4701 476.809,-110.9586 744.745,-33.9784 332.099,110.9427 404.406,249.1566 490.884,576.8221 30.455,232.5281 100.291,486.4514 32.399,719.4247 -10.764,36.9374 -28.319,71.547 -42.479,107.3206 -47.779,93.776 -110.191,169.1859 -199.722,225.5906 -35.047,22.0795 -145.002,80.0698 -109.594,58.5753 569.307,-345.5985 785.493,-426.2453 439.514,-285.0888 -253.619,100.8462 -521.872,153.1588 -791.921,184.4823 -178.457,22.0575 -324.37,-47.426 -454.807,-162.13 -109.106,-141.0158 -143.464,-318.2171 -168.604,-490.4994 -21.15,-176.6827 -22.741,-354.8742 -23.099,-532.5766 6.69,-168.8621 103.55,-288.2879 229.013,-390.909 309.237,-164.8724 -97.245,50.523 -546.504,325.2812 -21.492,13.144 46.342,-19.8883 70.153,-28.1167 63.935,-22.094 129.205,-32.1963 195.9,-41.0694 80.024,-6.5477 40.275,-4.039 119.243,-7.5943 0,0 658.715,-481.6092 658.715,-481.6092 v 0 c -81.588,1.2578 -40.388,0.1429 -123.597,3.4014 -424.93,32.0093 -792.67,263.4576 -1124.1412,537.1079 -122.1539,127.4134 -205.8802,270.7502 -202.1586,452.8542 2.671,180.5882 8.962,361.3118 32.9874,540.5541 30.7317,191.4728 71.4558,383.5286 191.7102,541.2991 139.6421,128.0832 301.9922,226.4587 498.7072,214.7491 274.564,-29.355 549.104,-76.7043 809.17,-172.2536 415.604,-145.8391 145.34,-42.3965 938.176,-496.9515 137.38,-78.7641 232.406,-188.065 288.727,-335.9981 11.999,-40.0391 27.509,-79.1898 35.997,-120.1174 50.899,-245.4451 -21.909,-501.9736 -56.435,-743.86 -52.773,-202.7293 -109.497,-412.2304 -291.127,-540.2568 -48.727,-34.3466 -183.831,-87.4519 -235.996,-109.3703 -288.722,-93.5587 -470.729,-107.3269 -764.164,-22.222 0,0 -641.692,507.1389 -641.692,507.1389 z"
   id="path855"
   style="fill:#000000;fill-opacity:1;fill-rule:nonzero;stroke:none;stroke-width:26.4583" /></svg>
