<?xml version="1.0" encoding="UTF-8" standalone="no"?>
<svg
   xmlns:dc="http://purl.org/dc/elements/1.1/"
   xmlns:cc="http://creativecommons.org/ns#"
   xmlns:rdf="http://www.w3.org/1999/02/22-rdf-syntax-ns#"
   xmlns:svg="http://www.w3.org/2000/svg"
   xmlns="http://www.w3.org/2000/svg"
   xmlns:sodipodi="http://sodipodi.sourceforge.net/DTD/sodipodi-0.dtd"
   xmlns:inkscape="http://www.inkscape.org/namespaces/inkscape"
   inkscape:version="1.0 (4035a4fb49, 2020-05-01)"
   sodipodi:docname="n_3.svg"
   id="svg10"
   viewBox="0 0 52 57"
   style="shape-rendering:geometricPrecision; text-rendering:geometricPrecision; image-rendering:optimizeQuality; fill-rule:evenodd; clip-rule:evenodd"
   version="1.1"
   height="10.2419mm"
   width="9.3484mm"
   xml:space="preserve"><metadata
   id="metadata14"><rdf:RDF><cc:Work
       rdf:about=""><dc:format>image/svg+xml</dc:format><dc:type
         rdf:resource="http://purl.org/dc/dcmitype/StillImage" /></cc:Work></rdf:RDF></metadata><sodipodi:namedview
   inkscape:current-layer="svg10"
   inkscape:window-maximized="1"
   inkscape:window-y="-8"
   inkscape:window-x="-8"
   inkscape:cy="19.354772"
   inkscape:cx="17.666268"
   inkscape:zoom="13.898381"
   showgrid="false"
   id="namedview12"
   inkscape:window-height="705"
   inkscape:window-width="1366"
   inkscape:pageshadow="2"
   inkscape:pageopacity="0"
   guidetolerance="10"
   gridtolerance="10"
   objecttolerance="10"
   borderopacity="1"
   bordercolor="#666666"
   pagecolor="#ffffff" />
 <defs
   id="defs4">
  <style
   id="style2"
   type="text/css">
   <![CDATA[
    .str0 {stroke:black;stroke-width:1.11301}
    .fil0 {fill:none}
   ]]>
  </style>
 </defs>
 
<path
   id="path16"
   d="m 12.488191,11.442379 c -0.401113,5.946007 -0.211896,11.939989 -0.211896,17.905204 0,1.80205 0.223176,3.723885 0,5.509293 -0.785276,6.282209 -0.138388,-4.069166 -0.741636,4.979554 -0.281155,4.217322 -0.779936,8.590737 -2.1189589,12.607806"
   style="fill:none;stroke:#000000;stroke-width:1.4725px;stroke-linecap:butt;stroke-linejoin:miter;stroke-opacity:1" /><path
   id="path18"
   d="m 13.335774,14.938662 c 0.146693,-3.453277 4.498775,-4.623425 7.098514,-5.4033463 2.861535,-0.8584607 12.872111,-1.7137645 14.726765,1.3773233 1.858182,3.096972 1.047576,6.347356 1.695167,9.747211 0.822748,4.319424 1.087494,8.683312 1.589219,13.031599 0.325557,2.821495 0.870595,5.564428 1.271375,8.369888 0.280105,1.960734 0.606073,7.174845 2.013012,8.581784 1.160181,1.160181 4.740693,0.09247 6.039033,0.741636"
   style="fill:none;stroke:#000000;stroke-width:1.4725px;stroke-linecap:butt;stroke-linejoin:miter;stroke-opacity:1" /></svg>
