<?xml version="1.0" encoding="UTF-8" standalone="no"?>
<svg
   xmlns:dc="http://purl.org/dc/elements/1.1/"
   xmlns:cc="http://creativecommons.org/ns#"
   xmlns:rdf="http://www.w3.org/1999/02/22-rdf-syntax-ns#"
   xmlns:svg="http://www.w3.org/2000/svg"
   xmlns="http://www.w3.org/2000/svg"
   xmlns:sodipodi="http://sodipodi.sourceforge.net/DTD/sodipodi-0.dtd"
   xmlns:inkscape="http://www.inkscape.org/namespaces/inkscape"
   inkscape:version="1.0 (4035a4fb49, 2020-05-01)"
   sodipodi:docname="n_4.svg"
   id="svg10"
   viewBox="0 0 883 1010"
   style="shape-rendering:geometricPrecision; text-rendering:geometricPrecision; image-rendering:optimizeQuality; fill-rule:evenodd; clip-rule:evenodd"
   version="1.1"
   height="9.6432mm"
   width="8.4322mm"
   xml:space="preserve"><metadata
   id="metadata14"><rdf:RDF><cc:Work
       rdf:about=""><dc:format>image/svg+xml</dc:format><dc:type
         rdf:resource="http://purl.org/dc/dcmitype/StillImage" /></cc:Work></rdf:RDF></metadata><sodipodi:namedview
   inkscape:current-layer="svg10"
   inkscape:window-maximized="1"
   inkscape:window-y="-8"
   inkscape:window-x="-8"
   inkscape:cy="18.22337"
   inkscape:cx="15.934867"
   inkscape:zoom="14.761265"
   showgrid="false"
   id="namedview12"
   inkscape:window-height="705"
   inkscape:window-width="1366"
   inkscape:pageshadow="2"
   inkscape:pageopacity="0"
   guidetolerance="10"
   gridtolerance="10"
   objecttolerance="10"
   borderopacity="1"
   bordercolor="#666666"
   pagecolor="#ffffff" />
 <defs
   id="defs4">
  <style
   id="style2"
   type="text/css">
   <![CDATA[
    .str0 {stroke:black;stroke-width:20.9941}
    .fil0 {fill:none}
   ]]>
  </style>
 </defs>
 
<path
   id="path16"
   d="m 195.15987,182.10038 c 2.85464,93.28179 11.17206,191.39925 3.75465,285.35318 -4.00893,50.77972 -17,101.70776 -24.40521,152.06319 -3.98473,27.09619 -3.91408,56.14273 -11.26394,82.60222 -13.54968,48.77886 -56.3197,136.01381 -56.3197,187.73235"
   style="fill:none;stroke:#000000;stroke-width:27.7117px;stroke-linecap:butt;stroke-linejoin:miter;stroke-opacity:1" /><path
   id="path18"
   d="m 202.66917,289.10782 c -0.58174,-64.32978 57.21018,-102.68784 110.76207,-122.02603 35.58775,-12.85113 133.32869,-61.14158 167.08181,-56.31971 27.52811,3.9326 44.22278,23.87338 63.82898,41.30112 75.05454,66.71514 87.53978,174.6677 99.49814,270.33459 6.65696,53.25548 19.56757,108.16414 22.5279,161.4498 3.24324,58.37832 0,117.99903 0,176.46841 0,44.56968 17.55537,201.48255 93.86616,163.32715"
   style="fill:none;stroke:#000000;stroke-width:27.7117px;stroke-linecap:butt;stroke-linejoin:miter;stroke-opacity:1" /></svg>
