<?xml version="1.0" encoding="UTF-8" standalone="no"?>
<svg
   xmlns:dc="http://purl.org/dc/elements/1.1/"
   xmlns:cc="http://creativecommons.org/ns#"
   xmlns:rdf="http://www.w3.org/1999/02/22-rdf-syntax-ns#"
   xmlns:svg="http://www.w3.org/2000/svg"
   xmlns="http://www.w3.org/2000/svg"
   xmlns:sodipodi="http://sodipodi.sourceforge.net/DTD/sodipodi-0.dtd"
   xmlns:inkscape="http://www.inkscape.org/namespaces/inkscape"
   inkscape:version="1.0 (4035a4fb49, 2020-05-01)"
   sodipodi:docname="q_2.svg"
   id="svg10"
   viewBox="0 0 291 667"
   style="shape-rendering:geometricPrecision; text-rendering:geometricPrecision; image-rendering:optimizeQuality; fill-rule:evenodd; clip-rule:evenodd"
   version="1.1"
   height="8.2119mm"
   width="3.5848mm"
   xml:space="preserve"><metadata
   id="metadata14"><rdf:RDF><cc:Work
       rdf:about=""><dc:format>image/svg+xml</dc:format><dc:type
         rdf:resource="http://purl.org/dc/dcmitype/StillImage" /></cc:Work></rdf:RDF></metadata><sodipodi:namedview
   inkscape:current-layer="svg10"
   inkscape:window-maximized="1"
   inkscape:window-y="-8"
   inkscape:window-x="-8"
   inkscape:cy="15.518551"
   inkscape:cx="6.7744252"
   inkscape:zoom="17.334093"
   showgrid="false"
   id="namedview12"
   inkscape:window-height="705"
   inkscape:window-width="1366"
   inkscape:pageshadow="2"
   inkscape:pageopacity="0"
   guidetolerance="10"
   gridtolerance="10"
   objecttolerance="10"
   borderopacity="1"
   bordercolor="#666666"
   pagecolor="#ffffff" />
 <defs
   id="defs4">
  <style
   id="style2"
   type="text/css">
   <![CDATA[
    .str0 {stroke:black;stroke-width:15.8411}
    .fil0 {fill:none}
   ]]>
  </style>
 </defs>
 
<path
   id="path16"
   d="m 189.60071,94.22305 c -9.18243,-12.845329 -45.38382,-11.012883 -59.50929,-4.95911 -19.8709,8.516099 -60.05678,37.51003 -71.907066,53.31041 -35.420589,47.22745 -77.907858,144.8291 -16.1171,188.44609 22.853116,16.13161 68.302136,38.38542 97.942376,26.03533 43.63366,-18.18069 87.43251,-172.21609 75.62641,-219.44053 -1.78033,-7.12128 -9.37774,-12.55656 -12.39778,-18.59665 -3.12572,-6.25143 -3.83672,-12.74993 -6.19888,-19.836433"
   style="fill:none;stroke:#000000;stroke-width:21.4904px;stroke-linecap:butt;stroke-linejoin:miter;stroke-opacity:1" /><path
   id="path18"
   d="m 194.55982,114.05948 c -6.17311,28.32186 -6.40547,58.26925 -11.15799,86.78439 -12.50895,75.0537 -6.19889,155.63762 -6.19889,231.83829 0,22.24515 2.32579,46.09271 0,68.18773 -1.959,18.61061 -0.62769,37.2714 -2.47955,55.78996 -2.31279,23.12785 -11.15799,46.1654 -11.15799,69.42752"
   style="fill:none;stroke:#000000;stroke-width:21.4904px;stroke-linecap:butt;stroke-linejoin:miter;stroke-opacity:1" /><path
   id="path20"
   d="m 281.34421,411.60595 c -20.8134,45.42482 -35.53783,96.07907 -63.22863,137.61523 -12.57905,18.86861 -26.27636,33.9561 -35.95353,53.31042 -4.84147,9.68296 -7.50437,25.40446 -18.59665,23.55577"
   style="fill:none;stroke:#000000;stroke-width:21.4904px;stroke-linecap:butt;stroke-linejoin:miter;stroke-opacity:1" /></svg>
