<?xml version="1.0" encoding="UTF-8" standalone="no"?>
<svg
   xmlns:dc="http://purl.org/dc/elements/1.1/"
   xmlns:cc="http://creativecommons.org/ns#"
   xmlns:rdf="http://www.w3.org/1999/02/22-rdf-syntax-ns#"
   xmlns:svg="http://www.w3.org/2000/svg"
   xmlns="http://www.w3.org/2000/svg"
   xmlns:sodipodi="http://sodipodi.sourceforge.net/DTD/sodipodi-0.dtd"
   xmlns:inkscape="http://www.inkscape.org/namespaces/inkscape"
   inkscape:version="1.0 (4035a4fb49, 2020-05-01)"
   sodipodi:docname="s_2.svg"
   id="svg10"
   viewBox="0 0 175 161"
   style="shape-rendering:geometricPrecision; text-rendering:geometricPrecision; image-rendering:optimizeQuality; fill-rule:evenodd; clip-rule:evenodd"
   version="1.0"
   height="4.3436mm"
   width="4.7383mm"
   xml:space="preserve"><metadata
   id="metadata14"><rdf:RDF><cc:Work
       rdf:about=""><dc:format>image/svg+xml</dc:format><dc:type
         rdf:resource="http://purl.org/dc/dcmitype/StillImage" /></cc:Work></rdf:RDF></metadata><sodipodi:namedview
   inkscape:current-layer="svg10"
   inkscape:window-maximized="1"
   inkscape:window-y="-8"
   inkscape:window-x="-8"
   inkscape:cy="8.2083776"
   inkscape:cx="8.9542674"
   inkscape:zoom="32.771397"
   showgrid="false"
   id="namedview12"
   inkscape:window-height="705"
   inkscape:window-width="1366"
   inkscape:pageshadow="2"
   inkscape:pageopacity="0"
   guidetolerance="10"
   gridtolerance="10"
   objecttolerance="10"
   borderopacity="1"
   bordercolor="#666666"
   pagecolor="#ffffff" />
 <defs
   id="defs4">
  <style
   id="style2"
   type="text/css">
   <![CDATA[
    .str0 {stroke:black;stroke-width:7.40302}
    .fil0 {fill:none}
   ]]>
  </style>
 </defs>
 
<path
   id="path16"
   d="m 97.541894,23.641263 c -6.502339,0.162728 -12.733695,3.346796 -18.853159,5.386617 -7.940459,2.646819 -12.05254,5.248602 -16.758364,12.568773 -3.833492,5.963211 -9.991288,18.505686 -7.481412,26.035315 1.029301,3.087905 10.130091,3.894562 12.269516,4.488848 7.266967,2.018601 14.616241,4.497124 22.144981,5.685872 12.066154,1.905181 29.215724,3.180411 38.604084,12.568774 4.9736,4.973599 6.8585,17.649798 6.28439,24.539028 -0.1928,2.31423 -1.5303,4.2114 -2.39406,6.28439 -5.82321,13.97572 -20.87863,17.71481 -34.115233,21.54647 -14.037015,4.06335 -32.424752,5.41899 -46.983269,2.99256 -5.477898,-0.91298 -10.54127,-2.85975 -15.860594,-4.18959 -4.067535,-1.01688 -7.58961,-1.56841 -11.07249,-3.89033 -3.321857,-2.21457 -4.227271,-7.08905 -6.284387,-10.17472"
   style="fill:none;stroke:#000000;stroke-width:9.80705px;stroke-linecap:butt;stroke-linejoin:miter;stroke-opacity:1" /><path
   id="path18"
   d="m 93.950816,24.539032 c 0.650492,-0.294417 1.432363,0.220806 2.094795,0 2.869382,-0.956462 5.969079,-1.790187 8.678439,-2.693308 3.62866,-1.209553 9.13014,0.311492 12.86803,0 3.3407,-0.278392 6.52793,-0.97386 9.87546,-1.197026 1.43078,-0.09542 3.48992,0.200211 4.48885,-0.299252"
   style="fill:none;stroke:#000000;stroke-width:9.80705px;stroke-linecap:butt;stroke-linejoin:miter;stroke-opacity:1" /></svg>
