<?xml version="1.0" encoding="UTF-8" standalone="no"?>
<svg
   xmlns:dc="http://purl.org/dc/elements/1.1/"
   xmlns:cc="http://creativecommons.org/ns#"
   xmlns:rdf="http://www.w3.org/1999/02/22-rdf-syntax-ns#"
   xmlns:svg="http://www.w3.org/2000/svg"
   xmlns="http://www.w3.org/2000/svg"
   xmlns:sodipodi="http://sodipodi.sourceforge.net/DTD/sodipodi-0.dtd"
   xmlns:inkscape="http://www.inkscape.org/namespaces/inkscape"
   inkscape:version="1.0 (4035a4fb49, 2020-05-01)"
   sodipodi:docname="T.svg"
   id="svg10"
   viewBox="0 0 152 156"
   style="shape-rendering:geometricPrecision; text-rendering:geometricPrecision; image-rendering:optimizeQuality; fill-rule:evenodd; clip-rule:evenodd"
   version="1.1"
   height="14.0429mm"
   width="13.6864mm"
   xml:space="preserve"><metadata
   id="metadata14"><rdf:RDF><cc:Work
       rdf:about=""><dc:format>image/svg+xml</dc:format><dc:type
         rdf:resource="http://purl.org/dc/dcmitype/StillImage" /></cc:Work></rdf:RDF></metadata><sodipodi:namedview
   inkscape:current-layer="svg10"
   inkscape:window-maximized="1"
   inkscape:window-y="-8"
   inkscape:window-x="-8"
   inkscape:cy="26.537764"
   inkscape:cx="25.864064"
   inkscape:zoom="10.136498"
   showgrid="false"
   id="namedview12"
   inkscape:window-height="705"
   inkscape:window-width="1366"
   inkscape:pageshadow="2"
   inkscape:pageopacity="0"
   guidetolerance="10"
   gridtolerance="10"
   objecttolerance="10"
   borderopacity="1"
   bordercolor="#666666"
   pagecolor="#ffffff" />
 <defs
   id="defs4">
  <style
   id="style2"
   type="text/css">
   <![CDATA[
    .str0 {stroke:black;stroke-width:2.22728}
    .fil0 {fill:none}
   ]]>
  </style>
 </defs>
 
<path
   id="path16"
   d="m 52.463417,17.107807 c -0.619133,3.45335 -0.604827,6.969753 -1.159853,10.438662 -0.111161,0.694816 -0.386614,1.353159 -0.579923,2.029741 -0.193312,1.836428 -0.318781,3.681275 -0.579926,5.509292 -0.594975,4.164816 -0.928037,8.004209 -1.449814,12.178439 -1.346757,10.774057 -2.921861,21.741178 -4.639408,32.475835 -1.300434,8.127729 -4.93512,25.795184 -0.869887,33.925654 1.460268,2.92053 3.53191,5.32404 4.929368,8.11896 2.06333,4.12665 4.638526,6.08887 8.988847,7.82899 3.837947,1.53518 9.082584,3.55538 13.338292,2.60967 4.889992,-1.08667 8.795908,-7.44257 11.888475,-8.98885"
   style="fill:none;stroke:#000000;stroke-width:2.93921px;stroke-linecap:butt;stroke-linejoin:miter;stroke-opacity:1" /><path
   id="path18"
   d="m 25.786837,60.60223 c 9.798903,-3.817516 20.545169,-1.656837 30.736061,-2.899628 9.85044,-1.201272 19.94802,-2.02974 29.866168,-2.02974"
   style="fill:none;stroke:#000000;stroke-width:2.93921px;stroke-linecap:butt;stroke-linejoin:miter;stroke-opacity:1" /></svg>
