<?xml version="1.0" encoding="UTF-8" standalone="no"?>
<svg
   xmlns:dc="http://purl.org/dc/elements/1.1/"
   xmlns:cc="http://creativecommons.org/ns#"
   xmlns:rdf="http://www.w3.org/1999/02/22-rdf-syntax-ns#"
   xmlns:svg="http://www.w3.org/2000/svg"
   xmlns="http://www.w3.org/2000/svg"
   xmlns:sodipodi="http://sodipodi.sourceforge.net/DTD/sodipodi-0.dtd"
   xmlns:inkscape="http://www.inkscape.org/namespaces/inkscape"
   inkscape:version="1.0 (4035a4fb49, 2020-05-01)"
   sodipodi:docname="w.svg"
   id="svg10"
   viewBox="0 0 50 50"
   style="shape-rendering:geometricPrecision; text-rendering:geometricPrecision; image-rendering:optimizeQuality; fill-rule:evenodd; clip-rule:evenodd"
   version="1.1"
   height="8.3097mm"
   width="8.2314mm"
   xml:space="preserve"><metadata
   id="metadata14"><rdf:RDF><cc:Work
       rdf:about=""><dc:format>image/svg+xml</dc:format><dc:type
         rdf:resource="http://purl.org/dc/dcmitype/StillImage" /></cc:Work></rdf:RDF></metadata><sodipodi:namedview
   inkscape:current-layer="svg10"
   inkscape:window-maximized="1"
   inkscape:window-y="-8"
   inkscape:window-x="-8"
   inkscape:cy="15.70337"
   inkscape:cx="15.555401"
   inkscape:zoom="17.130081"
   showgrid="false"
   id="namedview12"
   inkscape:window-height="705"
   inkscape:window-width="1366"
   inkscape:pageshadow="2"
   inkscape:pageopacity="0"
   guidetolerance="10"
   gridtolerance="10"
   objecttolerance="10"
   borderopacity="1"
   bordercolor="#666666"
   pagecolor="#ffffff" />
 <defs
   id="defs4">
  <style
   id="style2"
   type="text/css">
   <![CDATA[
    .str0 {stroke:black;stroke-width:1.21376}
    .fil0 {fill:none}
   ]]>
  </style>
 </defs>
 
<path
   id="path16"
   d="m 4.5034009,12.334184 c 1.3580565,4.386873 2.0488139,9.021885 3.0960882,13.510204 1.0178948,4.362406 0.8644766,8.845872 1.5949545,13.228739 0.066925,0.40155 0.2064677,2.833452 0.3752833,3.002267 0.277085,0.277086 0.3726225,-0.689483 0.5629251,-1.032029 0.657125,-1.182825 1.527057,-2.234842 2.251701,-3.37755 2.544654,-4.012725 4.315039,-8.818442 7.69331,-12.196712 0.446465,-0.446465 0.727988,-1.208381 1.313492,-1.501133 0.599245,-0.299624 1.326205,3.168808 1.501133,3.846654 1.32495,5.134182 -0.310879,-1.025953 1.407313,4.597224 0.926085,3.030825 1.258838,6.044725 2.908447,8.725339 0.05736,0.0932 0.772493,1.219671 0.938208,1.219671 0.09754,0 3.166994,-4.691764 3.37755,-4.972506 3.784554,-5.046071 5.478835,-11.372725 7.224206,-17.356857 0.342535,-1.174407 1.670955,-7.300207 2.439342,-8.068594 0.419784,-0.419784 1.009884,-1.009884 1.501133,-1.501134"
   style="fill:none;stroke:#000000;stroke-width:1.60716px;stroke-linecap:butt;stroke-linejoin:miter;stroke-opacity:1" /></svg>
