<?xml version="1.0" encoding="UTF-8" standalone="no"?>
<svg
   xmlns:dc="http://purl.org/dc/elements/1.1/"
   xmlns:cc="http://creativecommons.org/ns#"
   xmlns:rdf="http://www.w3.org/1999/02/22-rdf-syntax-ns#"
   xmlns:svg="http://www.w3.org/2000/svg"
   xmlns="http://www.w3.org/2000/svg"
   xmlns:sodipodi="http://sodipodi.sourceforge.net/DTD/sodipodi-0.dtd"
   xmlns:inkscape="http://www.inkscape.org/namespaces/inkscape"
   inkscape:version="1.0 (4035a4fb49, 2020-05-01)"
   sodipodi:docname="ª.svg"
   id="svg10"
   viewBox="0 0 648 364"
   style="shape-rendering:geometricPrecision; text-rendering:geometricPrecision; image-rendering:optimizeQuality; fill-rule:evenodd; clip-rule:evenodd"
   version="1.1"
   height="9.4593mm"
   width="16.8513mm"
   xml:space="preserve"><metadata
   id="metadata14"><rdf:RDF><cc:Work
       rdf:about=""><dc:format>image/svg+xml</dc:format><dc:type
         rdf:resource="http://purl.org/dc/dcmitype/StillImage" /></cc:Work></rdf:RDF></metadata><sodipodi:namedview
   inkscape:current-layer="svg10"
   inkscape:window-maximized="1"
   inkscape:window-y="-8"
   inkscape:window-x="-8"
   inkscape:cy="17.875843"
   inkscape:cx="31.844975"
   inkscape:zoom="15.048242"
   showgrid="false"
   id="namedview12"
   inkscape:window-height="705"
   inkscape:window-width="1366"
   inkscape:pageshadow="2"
   inkscape:pageopacity="0"
   guidetolerance="10"
   gridtolerance="10"
   objecttolerance="10"
   borderopacity="1"
   bordercolor="#666666"
   pagecolor="#ffffff" />
 <defs
   id="defs4">
  <style
   id="style2"
   type="text/css">
   <![CDATA[
    .str0 {stroke:black;stroke-width:7.69167}
    .fil0 {fill:none}
   ]]>
  </style>
 </defs>
 
<path
   id="path16"
   d="m 340.69836,21.46515 c -35.08634,0.07908 -70.17678,-0.49015 -105.22406,0.822438 -7.88438,0.295285 -5.41463,-0.578119 -13.72488,0.822439 -5.70992,0.962315 -9.92604,3.100302 -15.55485,4.112191 -4.43157,0.796659 -9.44818,1.581253 -13.7249,3.289753 -0.78827,0.314925 -1.02221,1.372612 -1.82997,1.644876 -1.73711,0.58552 -3.85648,0.03181 -5.48995,0.822438 -2.47584,1.198293 -4.01014,3.609972 -6.40496,4.934629 -4.19642,2.321208 -9.37717,2.850408 -13.72486,4.934628 -2.41924,1.159741 -7.62844,3.932055 -10.06491,5.757067 -1.32541,0.992797 -2.22441,2.429519 -3.65998,3.289751 -0.50752,0.304135 -1.21993,0 -1.82997,0 -1.21995,0.822439 -2.58164,1.498062 -3.65998,2.467314 -3.28479,2.952531 -6.45088,6.123213 -10.06491,9.046819 -2.90321,2.348589 -6.64943,3.882447 -9.14991,6.579504 -0.61741,0.66599 -0.60999,1.644876 -0.91496,2.467313 -1.21994,1.370731 -2.34628,2.813307 -3.65996,4.112192 -4.91826,4.862844 -5.34673,4.109 -9.14993,9.046819 -2.26356,2.938865 -3.85913,6.300867 -6.40493,9.046817 -3.74298,4.037227 -2.06325,0.828949 -5.48995,5.757062 -1.999571,2.87569 -2.674394,6.11825 -4.574972,9.04682 -2.003737,3.08752 -4.838444,5.76141 -6.404944,9.04682 -0.495403,1.03894 -0.267947,2.3205 -0.914951,3.28976 -0.350834,0.52561 -1.420795,0.33204 -1.829984,0.8224 -0.578709,0.69356 -0.446528,1.70947 -0.914952,2.46731 -1.068067,1.72811 -2.843144,3.09913 -3.659967,4.93462 -0.453141,1.01819 0.416924,2.25919 0,3.28975 -1.201493,2.96991 -5.519731,7.50896 -6.404957,10.6917 -0.523074,1.88062 -0.280741,3.90427 -0.914952,5.75706 -0.6017,1.75771 -2.316272,3.13644 -2.744977,4.93463 -0.713649,2.99368 0.446124,7.48419 0,10.6917 -0.628693,4.52095 -3.224772,8.46502 -3.659954,13.15901 -0.8512,9.18097 0,18.7474 0,27.96288 0,6.4828 -1.319893,17.09631 0,23.02827 1.10373,4.96055 3.937193,9.91899 5.489939,14.80389 1.601418,5.03798 2.689961,10.54332 4.574973,15.62632 1.469048,3.96139 4.020891,7.55274 5.489952,11.51414 1.65619,4.46598 2.929156,10.20564 3.659968,14.80389 0.304988,0.8224 0.609963,1.64487 0.914952,2.46731 0.304988,0 0.80177,-0.25458 0.914951,0 1.120526,2.51804 1.394843,5.79723 2.744976,8.22438 4.690669,8.43238 13.672559,17.44153 21.959809,23.02826 9.73683,6.56394 21.30841,9.16528 32.02472,13.98145 1.59068,0.71486 2.87154,2.00798 4.57496,2.46731 4.46878,1.20508 9.21039,1.40875 13.72488,2.46731 2.52151,0.59123 4.75256,2.06598 7.31993,2.46733 4.51729,0.70618 9.17999,0.27771 13.72488,0.8224 4.62462,0.55421 9.12279,1.77788 13.72487,2.46731 14.4332,2.16221 38.61702,2.72742 53.06954,1.64487 1.92231,-0.14394 3.6799,-1.04542 5.48994,-1.64487 10.13788,-3.3572 18.14278,-7.73553 27.44977,-12.33658 15.49194,-7.6587 12.09513,-4.23218 28.36473,-13.98145 6.41551,-3.84437 38.01435,-25.42168 43.00463,-32.89752 1.74947,-4.71755 -0.26947,-0.49963 2.74497,-4.11218 2.3138,-2.77302 1.80225,-6.94711 3.65996,-9.86926 0.64205,-1.0099 2.16629,-1.42701 2.74499,-2.46731 1.23507,-2.22042 -0.0138,-5.06407 0.91494,-7.40195 0.91757,-2.30918 2.61075,-4.31609 3.65998,-6.5795 4.96688,-10.71478 5.50701,-23.95808 7.31993,-35.36483 1.8225,-11.46711 4.26676,-22.99813 5.48994,-34.5424 0.69645,-6.57257 0.6225,-13.22604 1.82998,-19.73852 0.31712,-1.71026 1.49478,-3.22716 1.82999,-4.93463 0.44447,-2.26405 1.76534,-19.51499 1.83,-20.56094 1.21908,-19.72461 -1.69475,-38.97623 -4.57502,-58.393034 -0.74678,-5.034389 -1.56194,-10.663981 -2.74498,-15.626321 -0.40417,-1.695366 -1.45168,-3.234449 -1.82996,-4.934629 -0.23931,-1.075285 0.26464,-2.219281 0,-3.289753 -1.22875,-4.970301 -3.85645,-9.909617 -5.48996,-14.803884 -2.17559,-6.518428 0.28213,-1.706595 -1.82998,-7.401943 -0.7697,-2.075643 -6.68198,-10.774699 -9.14993,-11.514132 -0.57871,-0.17339 -1.25133,0.17338 -1.82997,0 -1.78901,-0.536015 -3.77629,-2.519589 -5.48995,-3.289753 -0.98325,-0.44188 -2.60134,0.31718 -3.65997,0 -1.29526,-0.388081 -5.35353,-0.699813 -5.48997,-0.822438 -0.21562,-0.193848 0.21562,-0.628589 0,-0.822438 -1.64245,-1.476322 -4.5467,1.214617 -6.40493,2.467315 z"
   style="fill:none;stroke:#000000;stroke-width:13.054px;stroke-linecap:butt;stroke-linejoin:miter;stroke-opacity:1" /><path
   id="path18"
   d="m 363.57315,31.334406 c 0.30498,2.467315 0.60997,4.934629 0.91494,7.401942 0.60999,1.096585 1.52328,2.095132 1.82999,3.289753 1.64316,6.400135 1.03116,13.275853 1.82999,19.738513 2.37207,19.189181 5.07071,38.364286 7.31994,57.570666 1.02965,8.79236 2.71253,17.51817 3.65998,26.31801 0.92624,8.60316 -0.4,17.69002 0,26.31802 0.38139,8.22916 1.41366,16.4408 1.82996,24.67315 0.51249,10.13392 0.21095,20.30445 0.91495,30.43019 0.13213,1.90275 2.72067,13.006 2.74498,13.15902 1.08763,6.84282 2.89415,13.67739 3.65997,20.56095 0.24276,2.18228 -0.70112,4.47883 0,6.5795 4.12997,12.37402 1.4913,-0.39517 4.57497,10.6917 1.7334,6.23229 1.75577,13.57682 3.65997,19.7385 0.80397,2.60153 2.76397,4.82484 3.65996,7.40196 0.64328,1.85026 0.43,3.8682 0.91495,5.75707 2.0938,8.15537 5.86447,19.62648 13.72488,24.67313 4.42354,2.84007 9.75194,3.67935 14.63987,4.93464 1.49535,0.38403 3.13099,0.30334 4.57495,0.8224 0.28324,0.1015 -0.2959,0.75594 0,0.8224 3.63126,0.81596 8.34451,-1.06374 11.8949,0 8.10102,2.42719 -3.25021,1.22747 6.40493,2.46731 9.81148,1.25986 21.97817,0 32.02472,0 12.69937,0 25.9259,0.78316 38.42966,-0.82241 6.03766,-0.77525 19.12376,0.90434 23.7898,-3.28975 2.61897,-2.35407 2.74497,-7.25746 2.74497,-10.69169"
   style="fill:none;stroke:#000000;stroke-width:13.054px;stroke-linecap:butt;stroke-linejoin:miter;stroke-opacity:1" /></svg>
