<?xml version="1.0" encoding="UTF-8" standalone="no"?>
<svg
   xmlns:dc="http://purl.org/dc/elements/1.1/"
   xmlns:cc="http://creativecommons.org/ns#"
   xmlns:rdf="http://www.w3.org/1999/02/22-rdf-syntax-ns#"
   xmlns:svg="http://www.w3.org/2000/svg"
   xmlns="http://www.w3.org/2000/svg"
   xmlns:sodipodi="http://sodipodi.sourceforge.net/DTD/sodipodi-0.dtd"
   xmlns:inkscape="http://www.inkscape.org/namespaces/inkscape"
   inkscape:version="1.0 (4035a4fb49, 2020-05-01)"
   sodipodi:docname="ú_2.svg"
   id="svg10"
   viewBox="0 0 20 23"
   style="shape-rendering:geometricPrecision; text-rendering:geometricPrecision; image-rendering:optimizeQuality; fill-rule:evenodd; clip-rule:evenodd"
   version="1.0"
   height="4.1472mm"
   width="3.5733mm"
   xml:space="preserve"><metadata
   id="metadata14"><rdf:RDF><cc:Work
       rdf:about=""><dc:format>image/svg+xml</dc:format><dc:type
         rdf:resource="http://purl.org/dc/dcmitype/StillImage" /></cc:Work></rdf:RDF></metadata><sodipodi:namedview
   inkscape:current-layer="svg10"
   inkscape:window-maximized="1"
   inkscape:window-y="-8"
   inkscape:window-x="-8"
   inkscape:cy="7.8372285"
   inkscape:cx="6.7526927"
   inkscape:zoom="34.323358"
   showgrid="false"
   id="namedview12"
   inkscape:window-height="705"
   inkscape:window-width="1366"
   inkscape:pageshadow="2"
   inkscape:pageopacity="0"
   guidetolerance="10"
   gridtolerance="10"
   objecttolerance="10"
   borderopacity="1"
   bordercolor="#666666"
   pagecolor="#ffffff" />
 <defs
   id="defs4">
  <style
   id="style2"
   type="text/css">
   <![CDATA[
    .str0 {stroke:black;stroke-width:1.12013}
    .fil0 {fill:none}
   ]]>
  </style>
 </defs>
 
<path
   id="path16"
   d="M 5.3068688,3.0435256 C 4.5841275,6.1724293 4.5733991,9.5336934 4.5733991,12.751212 c 0,2.324619 -0.1099058,7.529738 3.1927504,7.679859 0.9396133,0.04271 1.6769626,-0.471429 2.4592805,-0.90605 2.732518,-1.518066 3.888127,-3.174864 4.487109,-6.169775 0.135244,-0.676226 0.393689,-1.340105 0.474598,-2.027828 0.195782,-1.6641481 0.388159,-3.6251649 0.129436,-5.3068684 -0.04428,-0.2878222 -0.0961,-1.0256757 -0.302018,-0.8197602 -0.32448,0.3244811 -0.642943,3.0195064 -0.733469,3.4947671 -0.614279,3.2249625 -1.590019,7.2147955 0.388307,10.1822855 0.916731,1.375097 0.804564,1.510084 2.329845,1.510084"
   style="fill:none;stroke:#000000;stroke-width:1.48089px;stroke-linecap:butt;stroke-linejoin:miter;stroke-opacity:1" /></svg>
