<?xml version="1.0" encoding="UTF-8" standalone="no"?>
<svg
   xmlns:dc="http://purl.org/dc/elements/1.1/"
   xmlns:cc="http://creativecommons.org/ns#"
   xmlns:rdf="http://www.w3.org/1999/02/22-rdf-syntax-ns#"
   xmlns:svg="http://www.w3.org/2000/svg"
   xmlns="http://www.w3.org/2000/svg"
   xmlns:sodipodi="http://sodipodi.sourceforge.net/DTD/sodipodi-0.dtd"
   xmlns:inkscape="http://www.inkscape.org/namespaces/inkscape"
   inkscape:version="1.0 (4035a4fb49, 2020-05-01)"
   sodipodi:docname="ú_3.svg"
   id="svg10"
   viewBox="0 0 768 794"
   style="shape-rendering:geometricPrecision; text-rendering:geometricPrecision; image-rendering:optimizeQuality; fill-rule:evenodd; clip-rule:evenodd"
   version="1.1"
   height="8.1134mm"
   width="7.8481mm"
   xml:space="preserve"><metadata
   id="metadata14"><rdf:RDF><cc:Work
       rdf:about=""><dc:format>image/svg+xml</dc:format><dc:type
         rdf:resource="http://purl.org/dc/dcmitype/StillImage" /></cc:Work></rdf:RDF></metadata><sodipodi:namedview
   inkscape:current-layer="svg10"
   inkscape:window-maximized="1"
   inkscape:window-y="-8"
   inkscape:window-x="-8"
   inkscape:cy="15.33241"
   inkscape:cx="14.831055"
   inkscape:zoom="17.544534"
   showgrid="false"
   id="namedview12"
   inkscape:window-height="705"
   inkscape:window-width="1366"
   inkscape:pageshadow="2"
   inkscape:pageopacity="0"
   guidetolerance="10"
   gridtolerance="10"
   objecttolerance="10"
   borderopacity="1"
   bordercolor="#666666"
   pagecolor="#ffffff" />
 <defs
   id="defs4">
  <style
   id="style2"
   type="text/css">
   <![CDATA[
    .str0 {stroke:black;stroke-width:19.5625}
    .fil0 {fill:none}
   ]]>
  </style>
 </defs>
 
<path
   id="path16"
   d="m 116.57258,129.87361 c 2.24667,62.76211 -2.95167,125.71952 -2.95167,188.90706 0,81.33391 -14.906925,204.99272 48.7026,268.60226 76.39212,76.39211 213.68933,43.88331 286.31229,-22.13757 43.52888,-39.5717 72.90571,-141.97142 81.17099,-196.28624 7.2004,-47.3169 13.72289,-96.91694 16.23421,-144.63197 0.37648,-7.15392 0.8397,-29.09683 0,-29.51673 -4.98111,-2.49056 -14.61644,23.8347 -16.23421,28.04089 -13.81024,35.90664 -19.14557,74.18707 -23.61338,112.16356 -11.04895,93.91604 12.26887,203.55313 72.316,277.45727 14.18499,17.45847 36.64089,24.8342 51.65427,39.84759"
   style="fill:none;stroke:#000000;stroke-width:25.8929px;stroke-linecap:butt;stroke-linejoin:miter;stroke-opacity:1" /></svg>
