<?xml version="1.0" encoding="UTF-8" standalone="no"?>
<svg
   xmlns:dc="http://purl.org/dc/elements/1.1/"
   xmlns:cc="http://creativecommons.org/ns#"
   xmlns:rdf="http://www.w3.org/1999/02/22-rdf-syntax-ns#"
   xmlns:svg="http://www.w3.org/2000/svg"
   xmlns="http://www.w3.org/2000/svg"
   xmlns:sodipodi="http://sodipodi.sourceforge.net/DTD/sodipodi-0.dtd"
   xmlns:inkscape="http://www.inkscape.org/namespaces/inkscape"
   xml:space="preserve"
   width="2.7122mm"
   height="4.5049mm"
   version="1.0"
   style="shape-rendering:geometricPrecision; text-rendering:geometricPrecision; image-rendering:optimizeQuality; fill-rule:evenodd; clip-rule:evenodd"
   viewBox="0 0 4 7"
   id="svg10"
   sodipodi:docname="d.svg"
   inkscape:version="1.0 (4035a4fb49, 2020-05-01)"><metadata
   id="metadata14"><rdf:RDF><cc:Work
       rdf:about=""><dc:format>image/svg+xml</dc:format><dc:type
         rdf:resource="http://purl.org/dc/dcmitype/StillImage" /><dc:title /></cc:Work></rdf:RDF></metadata><sodipodi:namedview
   inkscape:document-rotation="0"
   pagecolor="#ffffff"
   bordercolor="#666666"
   borderopacity="1"
   objecttolerance="10"
   gridtolerance="10"
   guidetolerance="10"
   inkscape:pageopacity="0"
   inkscape:pageshadow="2"
   inkscape:window-width="1366"
   inkscape:window-height="705"
   id="namedview12"
   showgrid="false"
   inkscape:zoom="31.598001"
   inkscape:cx="5.1254172"
   inkscape:cy="8.5131968"
   inkscape:window-x="-8"
   inkscape:window-y="-8"
   inkscape:window-maximized="1"
   inkscape:current-layer="svg10" />
 <defs
   id="defs4">
  <style
   type="text/css"
   id="style2">
   <![CDATA[
    .str0 {stroke:black;stroke-width:0.291788}
    .fil0 {fill:none}
   ]]>
  </style>
 </defs>
 
<path
   style="fill:none;stroke:#000000;stroke-width:0.20309644;stroke-linecap:butt;stroke-linejoin:miter;stroke-opacity:1;stroke-miterlimit:4;stroke-dasharray:none"
   d="M 2.386093,3.5260223 C 2.2364946,3.2007813 1.3097732,3.013451 1.030648,3.3048327 0.82189609,3.5227508 0.732326,4.2216675 0.68789174,4.4888474 c -0.0460971,0.2771827 -0.0778994,0.5520013 -0.0778994,0.8327139 0,0.4885917 0.0122604,0.6727299 0.57645366,0.8847584 0.222585,0.083649 0.5446315,0.091745 0.7789914,0.065056 1.4110551,-0.1606926 1.0905881,-1.8800746 1.0905881,-2.7323423 0,-0.605169 0.05662,-1.2316072 -0.01558,-1.8345725 C 2.9891589,1.2761497 2.8866978,1.124096 2.744429,0.76765797 2.7095546,0.68028428 2.6742765,0.54646839 2.6665298,0.54646839 c -0.028957,0 -0.01558,0.22108507 -0.01558,0.22118958 0,0.29491943 0,0.58983893 0,0.88475833 0,0.3686493 0,0.7372987 0,1.105948 0,0.1454868 -0.028438,0.3128957 0,0.4553903 0.041034,0.2056131 0.1001511,0.4107581 0.1402185,0.6115242 0.040792,0.2044002 0.017517,0.4358416 0.077899,0.6375464 0.1001008,0.3343884 0.2318771,0.699562 0.4206554,1.01487 0.1270834,0.2122617 0.215723,0.5714908 0.4673948,0.6765796"
   id="path36" /></svg>
