<?xml version="1.0" encoding="UTF-8" standalone="no"?>
<svg
   xmlns:dc="http://purl.org/dc/elements/1.1/"
   xmlns:cc="http://creativecommons.org/ns#"
   xmlns:rdf="http://www.w3.org/1999/02/22-rdf-syntax-ns#"
   xmlns:svg="http://www.w3.org/2000/svg"
   xmlns="http://www.w3.org/2000/svg"
   xmlns:sodipodi="http://sodipodi.sourceforge.net/DTD/sodipodi-0.dtd"
   xmlns:inkscape="http://www.inkscape.org/namespaces/inkscape"
   xml:space="preserve"
   width="2.7122mm"
   height="4.5049mm"
   version="1.0"
   style="shape-rendering:geometricPrecision; text-rendering:geometricPrecision; image-rendering:optimizeQuality; fill-rule:evenodd; clip-rule:evenodd"
   viewBox="0 0 4 7"
   id="svg10"
   sodipodi:docname="d_2.svg"
   inkscape:version="1.0 (4035a4fb49, 2020-05-01)"><metadata
   id="metadata14"><rdf:RDF><cc:Work
       rdf:about=""><dc:format>image/svg+xml</dc:format><dc:type
         rdf:resource="http://purl.org/dc/dcmitype/StillImage" /><dc:title /></cc:Work></rdf:RDF></metadata><sodipodi:namedview
   inkscape:document-rotation="0"
   pagecolor="#ffffff"
   bordercolor="#666666"
   borderopacity="1"
   objecttolerance="10"
   gridtolerance="10"
   guidetolerance="10"
   inkscape:pageopacity="0"
   inkscape:pageshadow="2"
   inkscape:window-width="1366"
   inkscape:window-height="705"
   id="namedview12"
   showgrid="false"
   inkscape:zoom="31.598001"
   inkscape:cx="5.1254172"
   inkscape:cy="8.5131968"
   inkscape:window-x="-8"
   inkscape:window-y="-8"
   inkscape:window-maximized="1"
   inkscape:current-layer="svg10" />
 <defs
   id="defs4">
  <style
   type="text/css"
   id="style2">
   <![CDATA[
    .str0 {stroke:black;stroke-width:0.291788}
    .fil0 {fill:none}
   ]]>
  </style>
 </defs>
 
<path
   style="fill:none;stroke:#000000;stroke-width:0.2055632;stroke-linecap:butt;stroke-linejoin:miter;stroke-opacity:1;stroke-miterlimit:4;stroke-dasharray:none"
   d="M 2.6251476,2.7323419 C 2.3181611,2.7301524 1.8961334,2.6200969 1.5842555,2.7193308 1.0192475,2.8991061 0.53249516,3.4415263 0.34819599,3.9944237 0.2340796,4.336773 0.27831332,4.861943 0.37421832,5.204461 0.43410731,5.4183504 0.73940883,5.7860861 0.92068671,5.9200742 1.4579849,6.3172075 1.8304303,6.2821508 2.2478242,5.6858736 2.3909801,5.4813653 2.4481015,5.0585206 2.5080473,4.8141265 2.5887402,4.4851477 2.6742555,4.1623045 2.7552592,3.8382899 2.8281287,3.546812 2.8361269,3.2359833 2.8853707,2.9405204 3.0092482,2.1972552 3.2841001,1.3720484 2.9634376,0.65055762 2.925172,0.5644599 2.8962562,0.40122013 2.8333261,0.33828996 c -0.026202,-0.0262024 -0.031766,0.067753 -0.039033,0.1040892 -0.024568,0.12284128 -0.050511,0.25369303 -0.065056,0.37732342 -0.054427,0.46262612 -0.052045,0.92636602 -0.052045,1.39219332 0,0.5181482 -0.039731,1.0578479 0,1.5743494 0.057801,0.7514147 0.2922065,1.7167461 0.7416357,2.315985 0.1054538,0.1406053 0.3621561,0.2804709 0.429368,0.3252787"
   id="path7" /></svg>
