<?xml version="1.0" encoding="UTF-8" standalone="no"?>
<svg
   xmlns:dc="http://purl.org/dc/elements/1.1/"
   xmlns:cc="http://creativecommons.org/ns#"
   xmlns:rdf="http://www.w3.org/1999/02/22-rdf-syntax-ns#"
   xmlns:svg="http://www.w3.org/2000/svg"
   xmlns="http://www.w3.org/2000/svg"
   xmlns:sodipodi="http://sodipodi.sourceforge.net/DTD/sodipodi-0.dtd"
   xmlns:inkscape="http://www.inkscape.org/namespaces/inkscape"
   xml:space="preserve"
   width="2.7122mm"
   height="4.5049mm"
   version="1.0"
   style="shape-rendering:geometricPrecision; text-rendering:geometricPrecision; image-rendering:optimizeQuality; fill-rule:evenodd; clip-rule:evenodd"
   viewBox="0 0 4 7"
   id="svg10"
   sodipodi:docname="d_3.svg"
   inkscape:version="1.0 (4035a4fb49, 2020-05-01)"><metadata
   id="metadata14"><rdf:RDF><cc:Work
       rdf:about=""><dc:format>image/svg+xml</dc:format><dc:type
         rdf:resource="http://purl.org/dc/dcmitype/StillImage" /><dc:title /></cc:Work></rdf:RDF></metadata><sodipodi:namedview
   inkscape:document-rotation="0"
   pagecolor="#ffffff"
   bordercolor="#666666"
   borderopacity="1"
   objecttolerance="10"
   gridtolerance="10"
   guidetolerance="10"
   inkscape:pageopacity="0"
   inkscape:pageshadow="2"
   inkscape:window-width="1366"
   inkscape:window-height="705"
   id="namedview12"
   showgrid="false"
   inkscape:zoom="31.598001"
   inkscape:cx="5.1254172"
   inkscape:cy="8.5131968"
   inkscape:window-x="-8"
   inkscape:window-y="-8"
   inkscape:window-maximized="1"
   inkscape:current-layer="svg10" />
 <defs
   id="defs4">
  <style
   type="text/css"
   id="style2">
   <![CDATA[
    .str0 {stroke:black;stroke-width:0.291788}
    .fil0 {fill:none}
   ]]>
  </style>
 </defs>
 
<path
   style="fill:none;stroke:#000000;stroke-width:0.12333792;stroke-linecap:butt;stroke-linejoin:miter;stroke-opacity:1;stroke-miterlimit:4;stroke-dasharray:none"
   d="M 1.9355566,3.2918215 C 1.5020106,3.1005879 1.1029101,3.3535405 0.82960865,3.6951672 0.70716316,3.8482241 0.6597489,3.8534453 0.5954079,4.0464683 0.5071597,4.3112129 0.5043298,4.6265953 0.5043298,4.9052046 c 0,0.1811472 -0.0193131,0.3622036 0.0780669,0.5204457 0.17573844,0.285575 0.4832941,0.4575636 0.8066915,0.5204462 0.2020004,0.039279 0.3832538,0.074329 0.5724907,-0.013012 0.3835024,-0.177001 0.4569187,-2.314377 0.4684015,-2.6933086 0.00625,-0.2062205 0.048278,-0.4101914 0.065056,-0.6115242 0.035521,-0.4262559 0,-0.8725578 0,-1.3011152 0,-0.099002 0.046285,-0.63605441 0,-0.72862453 -0.016087,-0.0321726 -0.1269258,-0.0618688 -0.1561338,-0.0910768 -0.030521,-0.0305205 -0.018637,-0.11534095 -0.039033,-0.15613383 -0.017564,-0.0351274 5.921e-4,0.0798421 0.013011,0.11710038 0.045282,0.1358471 0.062713,0.26152071 0.091078,0.40334571 0.025927,0.12963347 0.017301,0.27294777 0.039034,0.40334567 0.050727,0.3043637 0.1040892,0.5874773 0.1040892,0.8977695 0,0.6185461 -0.045578,1.2584203 0.013011,1.8736059 0.038428,0.4034997 0.1248079,0.8010158 0.2081785,1.1970259 0.077637,0.368775 0.2710732,1.1059481 0.7416357,1.1059481"
   id="path38" /></svg>
