<?xml version="1.0" encoding="UTF-8" standalone="no"?>
<svg
   xmlns:dc="http://purl.org/dc/elements/1.1/"
   xmlns:cc="http://creativecommons.org/ns#"
   xmlns:rdf="http://www.w3.org/1999/02/22-rdf-syntax-ns#"
   xmlns:svg="http://www.w3.org/2000/svg"
   xmlns="http://www.w3.org/2000/svg"
   xmlns:sodipodi="http://sodipodi.sourceforge.net/DTD/sodipodi-0.dtd"
   xmlns:inkscape="http://www.inkscape.org/namespaces/inkscape"
   inkscape:version="1.0 (4035a4fb49, 2020-05-01)"
   sodipodi:docname="G.svg"
   id="svg10"
   viewBox="0 0 2.5251826 7"
   style="clip-rule:evenodd;fill-rule:evenodd;image-rendering:optimizeQuality;shape-rendering:geometricPrecision;text-rendering:geometricPrecision"
   version="1.0"
   height="4.5049mm"
   width="1.7122mm"
   xml:space="preserve"><metadata
   id="metadata14"><rdf:RDF><cc:Work
       rdf:about=""><dc:format>image/svg+xml</dc:format><dc:type
         rdf:resource="http://purl.org/dc/dcmitype/StillImage" /><dc:title /></cc:Work></rdf:RDF></metadata><sodipodi:namedview
   inkscape:current-layer="svg10"
   inkscape:window-maximized="1"
   inkscape:window-y="-8"
   inkscape:window-x="-8"
   inkscape:cy="8.5131968"
   inkscape:cx="5.1254172"
   inkscape:zoom="31.598001"
   showgrid="false"
   id="namedview12"
   inkscape:window-height="705"
   inkscape:window-width="1366"
   inkscape:pageshadow="2"
   inkscape:pageopacity="0"
   guidetolerance="10"
   gridtolerance="10"
   objecttolerance="10"
   borderopacity="1"
   bordercolor="#666666"
   pagecolor="#ffffff"
   inkscape:document-rotation="0" />
 <defs
   id="defs4">
  <style
   id="style2"
   type="text/css">
   <![CDATA[
    .str0 {stroke:black;stroke-width:0.291788}
    .fil0 {fill:none}
   ]]>
  </style>
 </defs>
 
<path
   id="path62"
   d="M 1.8574897,0.89776948 C 1.6246615,0.345575 0.78964457,1.1038258 0.62143017,1.3921933 0.51552869,1.5737388 0.51759798,1.7892318 0.49131869,1.9907063 0.45642126,2.2582533 0.37206067,2.6822016 0.66046367,2.8624535 0.96695687,3.0540117 1.4449075,3.1468116 1.7794228,2.9795539 2.1555865,2.791472 2.2466868,1.4526991 2.1437351,1.0408922 2.1232863,0.95909728 2.0246931,0.85679448 1.97459,0.80669148 1.9498995,0.78200088 1.9485678,1.015689 1.9485678,1.0539033 c 0,0.2385378 0,0.4770756 0,0.7156134 0,0.485113 0.056244,0.9510883 0.1301115,1.4312268 C 2.1755733,3.830554 2.3266072,4.639969 2.2348131,5.2825279 2.2152599,5.4194013 2.1007423,5.6029976 2.0136235,5.711896 1.8372457,5.9323683 1.275085,5.9826515 1.0247759,5.9200743 0.85731217,5.8782085 0.70852417,5.7851069 0.54336327,5.7379182 0.42000372,5.7026728 0.28561867,5.5244733 0.16603989,5.464684"
   style="fill:none;stroke:#000000;stroke-width:0.123338;stroke-linecap:butt;stroke-linejoin:miter;stroke-miterlimit:4;stroke-dasharray:none;stroke-opacity:1" /></svg>
