<?xml version="1.0" encoding="UTF-8" standalone="no"?>
<svg
   xmlns:dc="http://purl.org/dc/elements/1.1/"
   xmlns:cc="http://creativecommons.org/ns#"
   xmlns:rdf="http://www.w3.org/1999/02/22-rdf-syntax-ns#"
   xmlns:svg="http://www.w3.org/2000/svg"
   xmlns="http://www.w3.org/2000/svg"
   xmlns:sodipodi="http://sodipodi.sourceforge.net/DTD/sodipodi-0.dtd"
   xmlns:inkscape="http://www.inkscape.org/namespaces/inkscape"
   inkscape:version="1.0 (4035a4fb49, 2020-05-01)"
   sodipodi:docname="G_1.svg"
   id="svg10"
   viewBox="0 0 2.949635 7"
   style="clip-rule:evenodd;fill-rule:evenodd;image-rendering:optimizeQuality;shape-rendering:geometricPrecision;text-rendering:geometricPrecision"
   version="1.0"
   height="4.5049mm"
   width="2mm"
   xml:space="preserve"><metadata
   id="metadata14"><rdf:RDF><cc:Work
       rdf:about=""><dc:format>image/svg+xml</dc:format><dc:type
         rdf:resource="http://purl.org/dc/dcmitype/StillImage" /><dc:title /></cc:Work></rdf:RDF></metadata><sodipodi:namedview
   inkscape:current-layer="svg10"
   inkscape:window-maximized="1"
   inkscape:window-y="-8"
   inkscape:window-x="-8"
   inkscape:cy="8.5131968"
   inkscape:cx="5.1254172"
   inkscape:zoom="31.598001"
   showgrid="false"
   id="namedview12"
   inkscape:window-height="705"
   inkscape:window-width="1366"
   inkscape:pageshadow="2"
   inkscape:pageopacity="0"
   guidetolerance="10"
   gridtolerance="10"
   objecttolerance="10"
   borderopacity="1"
   bordercolor="#666666"
   pagecolor="#ffffff"
   inkscape:document-rotation="0" />
 <defs
   id="defs4">
  <style
   id="style2"
   type="text/css">
   <![CDATA[
    .str0 {stroke:black;stroke-width:0.291788}
    .fil0 {fill:none}
   ]]>
  </style>
 </defs>
 
<path
   id="path64"
   d="M 1.8574897,0.89776945 C 1.7035823,0.86500595 1.4982442,0.74032505 1.3240324,0.80669135 0.64410091,1.0657129 0.36120714,1.4656029 0.36120714,2.1598511 c 0,0.3960152 0.0768788,0.7448953 0.42936807,0.9758365 0.18645272,0.1221587 0.48545439,0.2447125 0.70260219,0.260223 0.1014933,0.00725 0.2954632,0.060373 0.3903345,0 0.5184051,-0.3298941 0.4033458,-1.4332804 0.4033458,-1.964684 0,-0.088122 0.027861,-0.2435352 -0.013011,-0.3252788 -0.02199,-0.04398 -0.1569392,-0.28624525 -0.1951672,-0.28624525 -0.030359,0 0,0.060719 0,0.091078 0,0.086741 0,0.17348205 0,0.26022305 0,0.3816605 0,0.7633209 0,1.1449814 0,0.5332118 0.064461,1.0499347 0.1431227,1.5743495 0.017963,0.1197542 0.072531,0.2485983 0.1040892,0.3643123 0.1194196,0.4378718 0.320333,1.9452051 -0.169145,2.2249067 -0.4425132,0.252865 -0.7762732,0.1702442 -1.24907047,0.052045"
   style="fill:none;stroke:#000000;stroke-width:0.16445056;stroke-linecap:butt;stroke-linejoin:miter;stroke-opacity:1;stroke-miterlimit:4;stroke-dasharray:none" /></svg>
