<?xml version="1.0" encoding="UTF-8" standalone="no"?>
<svg
   xmlns:dc="http://purl.org/dc/elements/1.1/"
   xmlns:cc="http://creativecommons.org/ns#"
   xmlns:rdf="http://www.w3.org/1999/02/22-rdf-syntax-ns#"
   xmlns:svg="http://www.w3.org/2000/svg"
   xmlns="http://www.w3.org/2000/svg"
   xmlns:sodipodi="http://sodipodi.sourceforge.net/DTD/sodipodi-0.dtd"
   xmlns:inkscape="http://www.inkscape.org/namespaces/inkscape"
   inkscape:version="1.0 (4035a4fb49, 2020-05-01)"
   sodipodi:docname="G_2.svg"
   id="svg10"
   viewBox="0 0 2.949635 7"
   style="clip-rule:evenodd;fill-rule:evenodd;image-rendering:optimizeQuality;shape-rendering:geometricPrecision;text-rendering:geometricPrecision"
   version="1.0"
   height="4.5049mm"
   width="2mm"
   xml:space="preserve"><metadata
   id="metadata14"><rdf:RDF><cc:Work
       rdf:about=""><dc:format>image/svg+xml</dc:format><dc:type
         rdf:resource="http://purl.org/dc/dcmitype/StillImage" /><dc:title /></cc:Work></rdf:RDF></metadata><sodipodi:namedview
   inkscape:current-layer="svg10"
   inkscape:window-maximized="1"
   inkscape:window-y="-8"
   inkscape:window-x="-8"
   inkscape:cy="8.5131968"
   inkscape:cx="5.1254172"
   inkscape:zoom="31.598001"
   showgrid="false"
   id="namedview12"
   inkscape:window-height="705"
   inkscape:window-width="1366"
   inkscape:pageshadow="2"
   inkscape:pageopacity="0"
   guidetolerance="10"
   gridtolerance="10"
   objecttolerance="10"
   borderopacity="1"
   bordercolor="#666666"
   pagecolor="#ffffff"
   inkscape:document-rotation="0" />
 <defs
   id="defs4">
  <style
   id="style2"
   type="text/css">
   <![CDATA[
    .str0 {stroke:black;stroke-width:0.291788}
    .fil0 {fill:none}
   ]]>
  </style>
 </defs>
 
<path
   id="path66"
   d="M 2.3909469,0.84572492 C 2.047658,0.52485552 1.2009034,0.57153695 0.97273127,1.027881 0.80018147,1.3729807 0.73829867,1.7448393 0.67347487,2.1208179 0.62718817,2.3892803 0.56209347,2.8905489 0.72551947,3.1356877 1.2738907,3.9582447 2.1780338,3.2809466 2.4950361,2.6152416 2.7012896,2.1821095 2.7292369,1.8920574 2.7292369,1.4312268 c 0,-0.1886376 0.049868,-0.44455607 -0.091078,-0.58550188 -0.030667,-0.0306676 0,0.086741 0,0.13011152 0,0.11710036 0,0.23420076 0,0.35130116 0,0.3252788 0,0.6505576 0,0.9758364 0,0.7503098 0,1.5006195 0,2.2509292 0,0.3952388 -0.00325,0.7806521 -0.052045,1.1710039 -0.011732,0.093856 0.00796,0.2086248 -0.026022,0.2992564 C 2.4023415,6.4448314 1.9469982,6.841623 1.454144,6.7657994 1.1929326,6.725613 0.95784367,6.5411513 0.71250827,6.4535316 0.55569637,6.3975271 0.05809758,6.1725913 -0.01611624,6.0241635"
   style="fill:none;stroke:#000000;stroke-width:0.16445056;stroke-linecap:butt;stroke-linejoin:miter;stroke-opacity:1;stroke-miterlimit:4;stroke-dasharray:none" /></svg>
