<?xml version="1.0" encoding="UTF-8" standalone="no"?>
<svg
   xmlns:dc="http://purl.org/dc/elements/1.1/"
   xmlns:cc="http://creativecommons.org/ns#"
   xmlns:rdf="http://www.w3.org/1999/02/22-rdf-syntax-ns#"
   xmlns:svg="http://www.w3.org/2000/svg"
   xmlns="http://www.w3.org/2000/svg"
   xmlns:sodipodi="http://sodipodi.sourceforge.net/DTD/sodipodi-0.dtd"
   xmlns:inkscape="http://www.inkscape.org/namespaces/inkscape"
   inkscape:version="1.0 (4035a4fb49, 2020-05-01)"
   sodipodi:docname="h.svg"
   id="svg10"
   viewBox="0 0 2.949635 7"
   style="clip-rule:evenodd;fill-rule:evenodd;image-rendering:optimizeQuality;shape-rendering:geometricPrecision;text-rendering:geometricPrecision"
   version="1.0"
   height="4.5049mm"
   width="2mm"
   xml:space="preserve"><metadata
   id="metadata14"><rdf:RDF><cc:Work
       rdf:about=""><dc:format>image/svg+xml</dc:format><dc:type
         rdf:resource="http://purl.org/dc/dcmitype/StillImage" /><dc:title /></cc:Work></rdf:RDF></metadata><sodipodi:namedview
   inkscape:current-layer="svg10"
   inkscape:window-maximized="1"
   inkscape:window-y="-8"
   inkscape:window-x="-8"
   inkscape:cy="8.5131968"
   inkscape:cx="5.1254172"
   inkscape:zoom="31.598001"
   showgrid="false"
   id="namedview12"
   inkscape:window-height="705"
   inkscape:window-width="1366"
   inkscape:pageshadow="2"
   inkscape:pageopacity="0"
   guidetolerance="10"
   gridtolerance="10"
   objecttolerance="10"
   borderopacity="1"
   bordercolor="#666666"
   pagecolor="#ffffff"
   inkscape:document-rotation="0" />
 <defs
   id="defs4">
  <style
   id="style2"
   type="text/css">
   <![CDATA[
    .str0 {stroke:black;stroke-width:0.291788}
    .fil0 {fill:none}
   ]]>
  </style>
 </defs>
 
<path
   id="path68"
   d="M 0.57013455,0.42936802 C 0.58070752,1.1853908 0.43488316,1.9247675 0.43488316,2.6802974 c 0,0.5240085 -0.0287968,1.0538303 -0.0788967,1.5743494 -0.0328642,0.3414437 0.009964,0.697709 -0.0112711,1.0408923 -0.0159145,0.2572027 0,0.5226604 0,0.780669 0,0.09179 -0.003401,0.1823941 -0.0112711,0.2732342 -0.002643,0.030514 -0.0112711,0.1217456 -0.0112711,0.091078 0,-0.3702575 0.0813464,-0.7498341 0.12398047,-1.118959 0.0204573,-0.1771202 0.0528808,-0.3632725 0.0788966,-0.533457 C 0.58103264,4.4218938 0.54999383,3.981352 0.89699218,3.8382899 1.0511224,3.7747444 1.1385082,3.7211896 1.3027463,3.7211896 c 0.090541,0 0.2948656,-0.038333 0.3944834,0 0.4000866,0.1539529 0.3975159,0.8206948 0.4846509,1.2230481 0.084487,0.3901277 0.19514,0.794783 0.4057542,1.1189595 0.057064,0.087833 0.086626,0.264684 0.1690643,0.3122673"
   style="fill:none;stroke:#000000;stroke-width:0.14718325;stroke-linecap:butt;stroke-linejoin:miter;stroke-miterlimit:4;stroke-dasharray:none;stroke-opacity:1" /></svg>
