<?xml version="1.0" encoding="UTF-8" standalone="no"?>
<svg
   xmlns:dc="http://purl.org/dc/elements/1.1/"
   xmlns:cc="http://creativecommons.org/ns#"
   xmlns:rdf="http://www.w3.org/1999/02/22-rdf-syntax-ns#"
   xmlns:svg="http://www.w3.org/2000/svg"
   xmlns="http://www.w3.org/2000/svg"
   xmlns:sodipodi="http://sodipodi.sourceforge.net/DTD/sodipodi-0.dtd"
   xmlns:inkscape="http://www.inkscape.org/namespaces/inkscape"
   inkscape:version="1.0 (4035a4fb49, 2020-05-01)"
   sodipodi:docname="j.svg"
   id="svg10"
   viewBox="0 0 2.5251826 7"
   style="clip-rule:evenodd;fill-rule:evenodd;image-rendering:optimizeQuality;shape-rendering:geometricPrecision;text-rendering:geometricPrecision"
   version="1.0"
   height="4.5049mm"
   width="1.7122mm"
   xml:space="preserve"><metadata
   id="metadata14"><rdf:RDF><cc:Work
       rdf:about=""><dc:format>image/svg+xml</dc:format><dc:type
         rdf:resource="http://purl.org/dc/dcmitype/StillImage" /><dc:title /></cc:Work></rdf:RDF></metadata><sodipodi:namedview
   inkscape:current-layer="svg10"
   inkscape:window-maximized="1"
   inkscape:window-y="-8"
   inkscape:window-x="-8"
   inkscape:cy="8.5131968"
   inkscape:cx="5.1254172"
   inkscape:zoom="31.598001"
   showgrid="false"
   id="namedview12"
   inkscape:window-height="705"
   inkscape:window-width="1366"
   inkscape:pageshadow="2"
   inkscape:pageopacity="0"
   guidetolerance="10"
   gridtolerance="10"
   objecttolerance="10"
   borderopacity="1"
   bordercolor="#666666"
   pagecolor="#ffffff"
   inkscape:document-rotation="0" />
 <defs
   id="defs4">
  <style
   id="style2"
   type="text/css">
   <![CDATA[
    .str0 {stroke:black;stroke-width:0.291788}
    .fil0 {fill:none}
   ]]>
  </style>
 </defs>
 
<path
   id="path11"
   d="m 1.9745901,2.5371746 c 0.014739,0.3503978 -0.021428,0.703915 0,1.0539034 0.033653,0.5496609 0.078067,0.9872702 0.078067,1.4962825 0,0.1806284 0.057192,0.4919925 0,0.6635687 C 1.9705263,5.9973209 1.794641,6.3325045 1.5712443,6.4665428 1.4691158,6.5278199 0.92780286,6.5333776 0.81659746,6.5055759 0.72449169,6.4825496 0.47233331,6.3304571 0.40024061,6.258364"
   style="fill:none;stroke:#000000;stroke-width:0.16445056;stroke-linecap:butt;stroke-linejoin:miter;stroke-opacity:1;stroke-miterlimit:4;stroke-dasharray:none" /><path
   id="path13"
   d="m 1.7794227,0.96282528 c 0.021617,-0.002746 0.2470713,-0.10451113 0.2602231,-0.0650558 0.074321,0.22296262 0.083899,0.44237922 -0.1951673,0.44237922 -0.064161,0 -0.1261711,0.011301 -0.1821561,-0.026022 C 1.6044691,1.2755576 1.5675348,1.2044823 1.545222,1.1449814 1.388658,0.72747749 1.9355566,0.71915991 1.9355566,1.1189591"
   style="fill:none;stroke:#000000;stroke-width:0.411126px;stroke-linecap:butt;stroke-linejoin:miter;stroke-opacity:1" /></svg>
