<?xml version="1.0" encoding="UTF-8" standalone="no"?>
<svg
   xmlns:dc="http://purl.org/dc/elements/1.1/"
   xmlns:cc="http://creativecommons.org/ns#"
   xmlns:rdf="http://www.w3.org/1999/02/22-rdf-syntax-ns#"
   xmlns:svg="http://www.w3.org/2000/svg"
   xmlns="http://www.w3.org/2000/svg"
   xmlns:sodipodi="http://sodipodi.sourceforge.net/DTD/sodipodi-0.dtd"
   xmlns:inkscape="http://www.inkscape.org/namespaces/inkscape"
   inkscape:version="1.0 (4035a4fb49, 2020-05-01)"
   sodipodi:docname="k.svg"
   id="svg10"
   viewBox="0 0 2.8021532 7"
   style="clip-rule:evenodd;fill-rule:evenodd;image-rendering:optimizeQuality;shape-rendering:geometricPrecision;text-rendering:geometricPrecision"
   version="1.0"
   height="4.5049mm"
   width="1.9mm"
   xml:space="preserve"><metadata
   id="metadata14"><rdf:RDF><cc:Work
       rdf:about=""><dc:format>image/svg+xml</dc:format><dc:type
         rdf:resource="http://purl.org/dc/dcmitype/StillImage" /><dc:title /></cc:Work></rdf:RDF></metadata><sodipodi:namedview
   inkscape:current-layer="svg10"
   inkscape:window-maximized="1"
   inkscape:window-y="-8"
   inkscape:window-x="-8"
   inkscape:cy="9.7790997"
   inkscape:cx="5.1254172"
   inkscape:zoom="31.598001"
   showgrid="false"
   id="namedview12"
   inkscape:window-height="705"
   inkscape:window-width="1366"
   inkscape:pageshadow="2"
   inkscape:pageopacity="0"
   guidetolerance="10"
   gridtolerance="10"
   objecttolerance="10"
   borderopacity="1"
   bordercolor="#666666"
   pagecolor="#ffffff"
   inkscape:document-rotation="0" />
 <defs
   id="defs4">
  <style
   id="style2"
   type="text/css">
   <![CDATA[
    .str0 {stroke:black;stroke-width:0.291788}
    .fil0 {fill:none}
   ]]>
  </style>
 </defs>
 
<path
   id="path25"
   d="m 0.45782353,0.29371881 c 0,0.78478249 0,1.56956479 0,2.35434729 0,0.8580288 0,1.7160574 0,2.5740863 0,0.2929856 0,0.5859707 0,0.8789562 0,0.1124365 0.005111,0.2201403 -0.0129427,0.3296087 -0.006822,0.041363 -0.004507,0.1664862 -0.0129427,0.1255653 -0.0253583,-0.1230097 0,-0.3130844 0,-0.4394781 0,-0.1249643 -0.0281331,-0.3971835 0,-0.5336523 C 0.52917955,5.1114476 0.68336983,4.5800465 0.93669839,4.2019353 1.0920867,3.970007 1.2699298,3.7826647 1.4802864,3.636892 1.5700764,3.574669 1.6654313,3.4872066 1.7520803,3.4171528 c 0.00124,-0.001 0.086849,-0.029191 0.064713,-0.047087 C 1.75161,3.3173666 1.6217388,3.4653502 1.583827,3.5113265 1.2734996,3.8876651 0.86585786,4.1346035 0.61313409,4.5943263 0.61238974,4.5956655 0.39156119,5.0485612 0.41899545,5.0651957 0.79303623,5.2919981 1.2570775,5.6210394 1.6485398,5.7871959 1.9935105,5.9336186 2.3864832,5.9287194 2.6451179,6.2423694"
   style="fill:none;stroke:#000000;stroke-width:0.20350757;stroke-linecap:butt;stroke-linejoin:miter;stroke-opacity:1;stroke-miterlimit:4;stroke-dasharray:none" /></svg>
