<?xml version="1.0" encoding="UTF-8" standalone="no"?>
<svg
   xmlns:dc="http://purl.org/dc/elements/1.1/"
   xmlns:cc="http://creativecommons.org/ns#"
   xmlns:rdf="http://www.w3.org/1999/02/22-rdf-syntax-ns#"
   xmlns:svg="http://www.w3.org/2000/svg"
   xmlns="http://www.w3.org/2000/svg"
   xmlns:sodipodi="http://sodipodi.sourceforge.net/DTD/sodipodi-0.dtd"
   xmlns:inkscape="http://www.inkscape.org/namespaces/inkscape"
   inkscape:version="1.0 (4035a4fb49, 2020-05-01)"
   sodipodi:docname="k_2.svg"
   id="svg10"
   viewBox="0 0 2.8021532 7"
   style="clip-rule:evenodd;fill-rule:evenodd;image-rendering:optimizeQuality;shape-rendering:geometricPrecision;text-rendering:geometricPrecision"
   version="1.0"
   height="4.5049mm"
   width="1.9mm"
   xml:space="preserve"><metadata
   id="metadata14"><rdf:RDF><cc:Work
       rdf:about=""><dc:format>image/svg+xml</dc:format><dc:type
         rdf:resource="http://purl.org/dc/dcmitype/StillImage" /><dc:title /></cc:Work></rdf:RDF></metadata><sodipodi:namedview
   inkscape:current-layer="svg10"
   inkscape:window-maximized="1"
   inkscape:window-y="-8"
   inkscape:window-x="-8"
   inkscape:cy="8.5131968"
   inkscape:cx="5.1254172"
   inkscape:zoom="31.598001"
   showgrid="false"
   id="namedview12"
   inkscape:window-height="705"
   inkscape:window-width="1366"
   inkscape:pageshadow="2"
   inkscape:pageopacity="0"
   guidetolerance="10"
   gridtolerance="10"
   objecttolerance="10"
   borderopacity="1"
   bordercolor="#666666"
   pagecolor="#ffffff"
   inkscape:document-rotation="0" />
 <defs
   id="defs4">
  <style
   id="style2"
   type="text/css">
   <![CDATA[
    .str0 {stroke:black;stroke-width:0.291788}
    .fil0 {fill:none}
   ]]>
  </style>
 </defs>
 
<path
   id="path27"
   d="m 0.42445248,0.32994035 c 0,2.05376425 0,4.10752855 0,6.16129265 0,0.035849 0.001236,-0.071743 0,-0.1075537 -0.006605,-0.1912724 -0.0111427,-0.3771007 -0.0111427,-0.5684983 0,-0.5506611 -0.0480421,-1.2811442 0.3119925,-1.6594005 C 1.0773723,3.7858919 1.4827969,3.5014059 1.8618466,3.1877969 1.89718,3.1585636 2.0846983,3.0872084 2.0846983,3.0187838 c 0,-0.038128 -0.5069744,0.3812266 -0.5571294,0.430215 -0.058849,0.05748 -0.1174394,0.1156239 -0.1782814,0.1690129 -0.3288146,0.2885346 -0.89140727,0.6070088 -0.89140727,1.2599151 0,0.025641 -0.0144224,0.133761 0,0.1536485 0.21859346,0.3014245 0.56256477,0.3331854 0.84683677,0.4148498 0.3079689,0.088472 0.6005424,0.2377113 0.9025499,0.3533913 0.1242134,0.047578 0.3182207,0.063272 0.378848,0.2304719"
   style="fill:none;stroke:#000000;stroke-width:0.20802996;stroke-linecap:butt;stroke-linejoin:miter;stroke-opacity:1;stroke-miterlimit:4;stroke-dasharray:none" /></svg>
