<?xml version="1.0" encoding="UTF-8" standalone="no"?>
<svg
   xmlns:dc="http://purl.org/dc/elements/1.1/"
   xmlns:cc="http://creativecommons.org/ns#"
   xmlns:rdf="http://www.w3.org/1999/02/22-rdf-syntax-ns#"
   xmlns:svg="http://www.w3.org/2000/svg"
   xmlns="http://www.w3.org/2000/svg"
   xmlns:sodipodi="http://sodipodi.sourceforge.net/DTD/sodipodi-0.dtd"
   xmlns:inkscape="http://www.inkscape.org/namespaces/inkscape"
   inkscape:version="1.0 (4035a4fb49, 2020-05-01)"
   sodipodi:docname="q.svg"
   id="svg10"
   viewBox="0 0 4 7"
   style="shape-rendering:geometricPrecision; text-rendering:geometricPrecision; image-rendering:optimizeQuality; fill-rule:evenodd; clip-rule:evenodd"
   version="1.0"
   height="4.5049mm"
   width="2.7122mm"
   xml:space="preserve"><metadata
   id="metadata14"><rdf:RDF><cc:Work
       rdf:about=""><dc:format>image/svg+xml</dc:format><dc:type
         rdf:resource="http://purl.org/dc/dcmitype/StillImage" /><dc:title /></cc:Work></rdf:RDF></metadata><sodipodi:namedview
   inkscape:current-layer="svg10"
   inkscape:window-maximized="1"
   inkscape:window-y="-8"
   inkscape:window-x="-8"
   inkscape:cy="8.5131968"
   inkscape:cx="5.1254172"
   inkscape:zoom="31.598001"
   showgrid="false"
   id="namedview12"
   inkscape:window-height="705"
   inkscape:window-width="1366"
   inkscape:pageshadow="2"
   inkscape:pageopacity="0"
   guidetolerance="10"
   gridtolerance="10"
   objecttolerance="10"
   borderopacity="1"
   bordercolor="#666666"
   pagecolor="#ffffff"
   inkscape:document-rotation="0" />
 <defs
   id="defs4">
  <style
   id="style2"
   type="text/css">
   <![CDATA[
    .str0 {stroke:black;stroke-width:0.291788}
    .fil0 {fill:none}
   ]]>
  </style>
 </defs>
 
<path
   id="path98"
   d="M 1.8807908,0.67489942 C 1.8816397,0.63820505 1.8760915,0.53755462 1.8224392,0.5203276 1.5871713,0.44478589 1.4421861,0.46308188 1.2243352,0.56248352 1.095629,0.6212098 0.93561355,0.6892057 0.84504963,0.80136737 0.51201746,1.2138215 0.46576411,2.3169266 0.46576411,2.8108021 c 0,0.2166408 -0.0464071,0.656294 0.0875274,0.6885475 C 0.75908638,3.5489086 0.95962158,3.2848336 1.0638682,3.1621019 1.254209,2.9380095 1.4859068,2.6413619 1.5744448,2.3611384 1.6769346,2.0367564 1.6793317,1.6759639 1.7640876,1.349395 c 0.036563,-0.1408802 0.07294,-0.35085652 0.07294,-0.49181967 0,-0.0624929 -0.00211,-0.22686459 0.043764,-0.18267591 0.041404,0.0398832 -0.014588,0.11222108 -0.014588,0.16862386 0,0.35664952 0.014588,0.71153332 0.014588,1.06795132 0,0.4436321 0.025149,0.8695122 0.07294,1.3068352 0.078944,0.7224168 -0.013758,1.4768313 0.058352,2.2061626 0.00815,0.082392 -0.021008,1.1679982 0.014588,1.236575 0.021746,0.041897 0.058352,-0.074944 0.087527,-0.1124156 C 2.2345042,6.3941159 2.3921949,6.2802781 2.4934832,6.1130199 2.7204665,5.7382008 2.8470897,5.3269591 3.0624115,4.9467049 3.1680202,4.7602018 3.4708728,4.5280313 3.4708728,4.3284169"
   style="fill:none;stroke:#000000;stroke-width:0.12333792;stroke-linecap:butt;stroke-linejoin:miter;stroke-opacity:1;stroke-miterlimit:4;stroke-dasharray:none" /></svg>
