<?xml version="1.0" encoding="UTF-8" standalone="no"?>
<svg
   xmlns:dc="http://purl.org/dc/elements/1.1/"
   xmlns:cc="http://creativecommons.org/ns#"
   xmlns:rdf="http://www.w3.org/1999/02/22-rdf-syntax-ns#"
   xmlns:svg="http://www.w3.org/2000/svg"
   xmlns="http://www.w3.org/2000/svg"
   xmlns:sodipodi="http://sodipodi.sourceforge.net/DTD/sodipodi-0.dtd"
   xmlns:inkscape="http://www.inkscape.org/namespaces/inkscape"
   inkscape:version="1.0 (4035a4fb49, 2020-05-01)"
   sodipodi:docname="q_2.svg"
   id="svg10"
   viewBox="0 0 3.6870438 7"
   style="clip-rule:evenodd;fill-rule:evenodd;image-rendering:optimizeQuality;shape-rendering:geometricPrecision;text-rendering:geometricPrecision"
   version="1.0"
   height="4.5049mm"
   width="2.5mm"
   xml:space="preserve"><metadata
   id="metadata14"><rdf:RDF><cc:Work
       rdf:about=""><dc:format>image/svg+xml</dc:format><dc:type
         rdf:resource="http://purl.org/dc/dcmitype/StillImage" /><dc:title /></cc:Work></rdf:RDF></metadata><sodipodi:namedview
   inkscape:current-layer="svg10"
   inkscape:window-maximized="1"
   inkscape:window-y="-8"
   inkscape:window-x="-8"
   inkscape:cy="8.5131968"
   inkscape:cx="5.1254172"
   inkscape:zoom="31.598001"
   showgrid="false"
   id="namedview12"
   inkscape:window-height="705"
   inkscape:window-width="1366"
   inkscape:pageshadow="2"
   inkscape:pageopacity="0"
   guidetolerance="10"
   gridtolerance="10"
   objecttolerance="10"
   borderopacity="1"
   bordercolor="#666666"
   pagecolor="#ffffff"
   inkscape:document-rotation="0" />
 <defs
   id="defs4">
  <style
   id="style2"
   type="text/css">
   <![CDATA[
    .str0 {stroke:black;stroke-width:0.291788}
    .fil0 {fill:none}
   ]]>
  </style>
 </defs>
 
<path
   id="path100"
   d="M 1.9355566,1.0148699 C 1.8771613,0.91454196 1.7647353,0.93487779 1.6623224,0.91078065 1.2889238,0.82292215 1.4545134,0.85855131 1.1418763,1.0148699 0.86478409,1.153416 0.65458178,1.4583188 0.56938557,1.7565056 0.45532558,2.1557155 0.4006697,3.0841948 0.6734748,3.4349442 0.83215265,3.6389586 1.100537,3.4623448 1.2329544,3.3438661 1.3673743,3.2235956 1.5365891,3.1360295 1.6493112,2.992565 1.7970226,2.8045687 2.4431095,1.2751716 2.0526569,1.0148699 c -0.011545,-0.0077 -0.063066,0.2955876 -0.065056,0.3513011 -0.01466,0.4104915 -0.078067,0.8121027 -0.078067,1.2230483 0,1.0733973 -0.026022,2.1508934 -0.026022,3.2267659 0,0.076576 0.038547,0.8327135 0.052045,0.8327135 0.087332,0 0.1773581,-0.2159157 0.2211896,-0.2732342 C 2.3020639,6.1854337 2.5010819,6.0514706 2.65117,5.8680297 2.8078773,5.6764987 3.0405253,5.076308 3.1195715,4.9182155"
   style="fill:none;stroke:#000000;stroke-width:0.16445056;stroke-linecap:butt;stroke-linejoin:miter;stroke-opacity:1;stroke-miterlimit:4;stroke-dasharray:none" /></svg>
