<?xml version="1.0" encoding="UTF-8" standalone="no"?>
<svg
   xmlns:dc="http://purl.org/dc/elements/1.1/"
   xmlns:cc="http://creativecommons.org/ns#"
   xmlns:rdf="http://www.w3.org/1999/02/22-rdf-syntax-ns#"
   xmlns:svg="http://www.w3.org/2000/svg"
   xmlns="http://www.w3.org/2000/svg"
   xmlns:sodipodi="http://sodipodi.sourceforge.net/DTD/sodipodi-0.dtd"
   xmlns:inkscape="http://www.inkscape.org/namespaces/inkscape"
   inkscape:version="1.0 (4035a4fb49, 2020-05-01)"
   sodipodi:docname="x_2.svg"
   id="svg10"
   viewBox="0 0 13 11"
   style="shape-rendering:geometricPrecision; text-rendering:geometricPrecision; image-rendering:optimizeQuality; fill-rule:evenodd; clip-rule:evenodd"
   version="1.0"
   height="4.321mm"
   width="4.7944mm"
   xml:space="preserve"><metadata
   id="metadata14"><rdf:RDF><cc:Work
       rdf:about=""><dc:format>image/svg+xml</dc:format><dc:type
         rdf:resource="http://purl.org/dc/dcmitype/StillImage" /></cc:Work></rdf:RDF></metadata><sodipodi:namedview
   inkscape:current-layer="svg10"
   inkscape:window-maximized="1"
   inkscape:window-y="-8"
   inkscape:window-x="-8"
   inkscape:cy="8.1656695"
   inkscape:cx="9.0602839"
   inkscape:zoom="32.942798"
   showgrid="false"
   id="namedview12"
   inkscape:window-height="705"
   inkscape:window-width="1366"
   inkscape:pageshadow="2"
   inkscape:pageopacity="0"
   guidetolerance="10"
   gridtolerance="10"
   objecttolerance="10"
   borderopacity="1"
   bordercolor="#666666"
   pagecolor="#ffffff" />
 <defs
   id="defs4">
  <style
   id="style2"
   type="text/css">
   <![CDATA[
    .str0 {stroke:black;stroke-width:0.524357}
    .fil0 {fill:none}
   ]]>
  </style>
 </defs>
 
<path
   id="path16"
   d="M 2.5915407,1.2751353 C 2.3796936,2.7508115 4.1419054,3.6457681 5.0959709,4.4111173 6.1503738,5.2569571 7.155732,6.1933208 8.1666198,7.0897688 8.562075,7.4404551 9.0805227,8.0469019 9.3861689,8.4835383 9.5981935,8.7864309 10.016751,9.4848262 10.322607,9.6377543"
   style="fill:none;stroke:#000000;stroke-width:0.717417px;stroke-linecap:butt;stroke-linejoin:miter;stroke-opacity:1" /><path
   id="path18"
   d="M 1.2631039,8.8973142 C 1.962181,8.5489222 2.6033948,8.0936201 3.2884256,7.7213209 4.0000151,7.3345873 4.7164512,6.9833479 5.400858,6.5453274 6.6975512,5.7154437 7.8260534,4.5556853 8.90706,3.4746783 9.1855461,3.1961922 9.5125232,2.9785908 9.799944,2.7124604 10.122203,2.4140724 10.426036,2.0645906 10.736383,1.7542436 10.878027,1.6125997 10.950642,1.4310964 11.084825,1.2969129"
   style="fill:none;stroke:#000000;stroke-width:0.717417px;stroke-linecap:butt;stroke-linejoin:miter;stroke-opacity:1" /></svg>
