<?xml version="1.0" encoding="UTF-8" standalone="no"?>
<svg
   xmlns:dc="http://purl.org/dc/elements/1.1/"
   xmlns:cc="http://creativecommons.org/ns#"
   xmlns:rdf="http://www.w3.org/1999/02/22-rdf-syntax-ns#"
   xmlns:svg="http://www.w3.org/2000/svg"
   xmlns="http://www.w3.org/2000/svg"
   xmlns:sodipodi="http://sodipodi.sourceforge.net/DTD/sodipodi-0.dtd"
   xmlns:inkscape="http://www.inkscape.org/namespaces/inkscape"
   inkscape:version="1.0 (4035a4fb49, 2020-05-01)"
   sodipodi:docname="Ñ_2.svg"
   id="svg10"
   viewBox="0 0 12 13"
   style="shape-rendering:geometricPrecision; text-rendering:geometricPrecision; image-rendering:optimizeQuality; fill-rule:evenodd; clip-rule:evenodd"
   version="1.0"
   height="4.0631mm"
   width="3.5239mm"
   xml:space="preserve"><metadata
   id="metadata14"><rdf:RDF><cc:Work
       rdf:about=""><dc:format>image/svg+xml</dc:format><dc:type
         rdf:resource="http://purl.org/dc/dcmitype/StillImage" /></cc:Work></rdf:RDF></metadata><sodipodi:namedview
   inkscape:current-layer="svg10"
   inkscape:window-maximized="1"
   inkscape:window-y="-8"
   inkscape:window-x="-8"
   inkscape:cy="7.678299"
   inkscape:cx="6.6593386"
   inkscape:zoom="35.033801"
   showgrid="false"
   id="namedview12"
   inkscape:window-height="705"
   inkscape:window-width="1366"
   inkscape:pageshadow="2"
   inkscape:pageopacity="0"
   guidetolerance="10"
   gridtolerance="10"
   objecttolerance="10"
   borderopacity="1"
   bordercolor="#666666"
   pagecolor="#ffffff" />
 <defs
   id="defs4">
  <style
   id="style2"
   type="text/css">
   <![CDATA[
    .str0 {stroke:black;stroke-width:0.66385}
    .fil0 {fill:none}
   ]]>
  </style>
 </defs>
 
<path
   id="path16"
   d="M 2.5460568,2.3080074 C 2.3135856,3.988754 2.2041594,5.6868962 2.0574197,7.3744033 2.0092088,7.9288279 2.0734409,8.4929119 2.0059842,9.0460565 1.9156493,9.786803 1.7751416,10.638706 1.5430647,11.334936"
   style="fill:none;stroke:#000000;stroke-width:0.90099px;stroke-linecap:butt;stroke-linejoin:miter;stroke-opacity:1" /><path
   id="path18"
   d="M 3.0346939,2.8480801 C 2.9091185,4.089838 3.3142825,5.2253287 3.6519198,6.397129 c 0.374382,1.2993254 0.8583839,2.4422799 1.5945003,3.5747663 0.2220447,0.3416077 0.3626601,0.7291487 0.6172259,1.0544277 0.061069,0.07803 1.2289297,1.528391 1.4401938,1.105863"
   style="fill:none;stroke:#000000;stroke-width:0.90099px;stroke-linecap:butt;stroke-linejoin:miter;stroke-opacity:1" /><path
   id="path20"
   d="M 9.3355416,2.05083 C 9.2199257,2.499811 9.0763826,2.9413056 8.9497755,3.3881527 8.668967,4.3792415 8.4000956,5.4128591 8.3325496,6.4485645 8.2331868,7.9721278 8.2938946,9.1106908 7.9467834,10.614839 c -0.042783,0.18539 -0.1618909,0.364668 -0.205742,0.540073 -0.051521,0.206086 -0.068386,0.432236 -0.1285887,0.642944 -0.024008,0.08403 -0.051468,0.180121 -0.077154,0.257177 -0.00495,0.01484 0.00742,0.127765 0,0.128589 -0.078552,0.0087 -0.1543064,-0.03429 -0.2314597,-0.05144"
   style="fill:none;stroke:#000000;stroke-width:0.90099px;stroke-linecap:butt;stroke-linejoin:miter;stroke-opacity:1" /></svg>
