<?xml version="1.0" encoding="UTF-8" standalone="no"?>
<svg
   xmlns:dc="http://purl.org/dc/elements/1.1/"
   xmlns:cc="http://creativecommons.org/ns#"
   xmlns:rdf="http://www.w3.org/1999/02/22-rdf-syntax-ns#"
   xmlns:svg="http://www.w3.org/2000/svg"
   xmlns="http://www.w3.org/2000/svg"
   xmlns:sodipodi="http://sodipodi.sourceforge.net/DTD/sodipodi-0.dtd"
   xmlns:inkscape="http://www.inkscape.org/namespaces/inkscape"
   inkscape:version="1.0 (4035a4fb49, 2020-05-01)"
   sodipodi:docname="Ñ_3.svg"
   id="svg10"
   viewBox="0 0 72 95"
   style="shape-rendering:geometricPrecision; text-rendering:geometricPrecision; image-rendering:optimizeQuality; fill-rule:evenodd; clip-rule:evenodd"
   version="1.1"
   height="7.9818mm"
   width="6.0293mm"
   xml:space="preserve"><metadata
   id="metadata14"><rdf:RDF><cc:Work
       rdf:about=""><dc:format>image/svg+xml</dc:format><dc:type
         rdf:resource="http://purl.org/dc/dcmitype/StillImage" /></cc:Work></rdf:RDF></metadata><sodipodi:namedview
   inkscape:current-layer="svg10"
   inkscape:window-maximized="1"
   inkscape:window-y="-8"
   inkscape:window-x="-8"
   inkscape:cy="15.083717"
   inkscape:cx="11.393953"
   inkscape:zoom="17.833801"
   showgrid="false"
   id="namedview12"
   inkscape:window-height="705"
   inkscape:window-width="1366"
   inkscape:pageshadow="2"
   inkscape:pageopacity="0"
   guidetolerance="10"
   gridtolerance="10"
   objecttolerance="10"
   borderopacity="1"
   bordercolor="#666666"
   pagecolor="#ffffff" />
 <defs
   id="defs4">
  <style
   id="style2"
   type="text/css">
   <![CDATA[
    .str0 {stroke:black;stroke-width:2.3758}
    .fil0 {fill:none}
   ]]>
  </style>
 </defs>
 
<path
   id="path16"
   d="m 16.299414,13.483833 c 0.8957,18.379182 1.771675,36.671643 1.771675,55.099105 0,3.668675 0.92702,10.152168 -0.177167,13.464731"
   style="fill:none;stroke:#000000;stroke-width:3.15957px;stroke-linecap:butt;stroke-linejoin:miter;stroke-opacity:1" /><path
   id="path18"
   d="m 14.882073,11.712158 c 1.962371,1.951281 4.98223,3.156525 6.732367,5.315026 5.381155,6.636758 8.935315,14.256245 12.756061,21.791607 3.176819,6.265391 6.834954,12.395536 10.452886,18.425425 2.50541,4.175685 10.80722,16.992107 10.80722,22.854611 1.540528,-4.483428 1.98424,-9.460493 2.657513,-14.173402 0.959135,-6.713943 2.28085,-13.417161 2.657513,-20.197099 0.364845,-6.567203 0,-13.262625 0,-19.842765 0,-2.976695 1.049499,-12.605907 -0.354335,-15.413576"
   style="fill:none;stroke:#000000;stroke-width:3.15957px;stroke-linecap:butt;stroke-linejoin:miter;stroke-opacity:1" /></svg>
